<?xml version="1.0" encoding="UTF-8" standalone="no"?><!DOCTYPE svg PUBLIC "-//W3C//DTD SVG 1.1//EN" "http://www.w3.org/Graphics/SVG/1.1/DTD/svg11.dtd"><svg width="100%" height="100%" viewBox="0 0 6706 3389" version="1.1" xmlns="http://www.w3.org/2000/svg" xmlns:xlink="http://www.w3.org/1999/xlink" xml:space="preserve" xmlns:serif="http://www.serif.com/" style="fill-rule:evenodd;clip-rule:evenodd;stroke-miterlimit:10;"><path d="M3788.18,142.961C3792.26,116.294 3801.88,78.144 3810.03,56.294L3789.29,58.517C3778.92,75.55 3762.99,115.55 3754.48,146.661L3788.18,142.961ZM3842.99,142.961C3847.07,116.294 3856.7,78.144 3864.85,56.294L3844.11,58.517C3834.11,75.55 3817.81,115.55 3809.66,146.661L3842.99,142.961Z" style="fill:#231f20;fill-rule:nonzero;"/><path d="M4004.85,231.478L4031.52,309.994L4065.96,309.994L3980.77,60.367L3941.88,60.367L3857.07,309.994L3890.41,309.994L3916.33,231.478L4004.85,231.478ZM3922.99,206.294L3947.44,134.072C3952.26,118.883 3956.33,103.7 3960.03,88.883L3960.77,88.883C3964.48,103.328 3968.18,118.144 3973.74,134.439L3998.18,206.294L3922.99,206.294Z" style="fill:#231f20;fill-rule:nonzero;"/><path d="M4098.92,324.811L4202.63,56.294L4177.44,56.294L4074.11,324.811L4098.92,324.811Z" style="fill:#231f20;fill-rule:nonzero;"/><rect x="4229.66" y="60.367" width="32.222" height="249.628" style="fill:#231f20;"/><path d="M4322.63,59.628C4318.55,86.294 4308.55,124.811 4300.77,146.661L4321.52,144.072C4331.52,127.033 4347.44,87.406 4355.96,56.294L4322.63,59.628ZM4377.44,59.628C4373.37,86.294 4363.74,124.811 4355.59,146.661L4376.33,144.072C4386.33,127.033 4402.26,87.406 4410.77,56.294L4377.44,59.628Z" style="fill:#231f20;fill-rule:nonzero;"/><path d="M4492.99,309.994L4525.22,309.994L4525.22,214.439C4525.22,208.883 4525.96,203.7 4526.7,199.256C4531.14,174.811 4547.44,157.406 4570.41,157.406C4574.85,157.406 4578.18,157.772 4581.52,158.517L4581.52,127.772C4578.55,127.033 4575.96,126.661 4572.26,126.661C4550.41,126.661 4530.77,141.85 4522.63,165.922L4521.14,165.922L4520.03,130.739L4491.52,130.739C4492.63,147.406 4492.99,165.55 4492.99,186.661L4492.99,309.994Z" style="fill:#231f20;fill-rule:nonzero;"/><path d="M4741.14,309.994C4738.92,297.772 4738.18,282.589 4738.18,267.033L4738.18,199.994C4738.18,164.072 4724.85,126.661 4670.03,126.661C4647.44,126.661 4625.96,132.961 4611.14,142.589L4618.55,164.072C4631.14,155.922 4648.55,150.739 4665.22,150.739C4701.88,150.739 4705.96,177.406 4705.96,192.217L4705.96,195.922C4636.7,195.55 4598.18,219.256 4598.18,262.589C4598.18,288.517 4616.7,314.072 4652.99,314.072C4678.55,314.072 4697.81,301.478 4707.81,287.406L4708.92,287.406L4711.52,309.994L4741.14,309.994ZM4706.7,249.628C4706.7,252.961 4705.96,256.661 4704.85,259.994C4699.66,275.183 4684.85,289.994 4661.52,289.994C4644.85,289.994 4630.77,279.994 4630.77,258.883C4630.77,224.072 4671.14,217.772 4706.7,218.517L4706.7,249.628Z" style="fill:#231f20;fill-rule:nonzero;"/><path d="M4796.7,87.772L4796.7,130.739L4768.92,130.739L4768.92,155.55L4796.7,155.55L4796.7,253.328C4796.7,274.439 4800.03,290.367 4809.29,299.994C4817.07,308.883 4829.29,313.7 4844.48,313.7C4857.07,313.7 4867.07,311.85 4873.37,309.256L4871.88,284.811C4867.81,285.922 4861.52,287.033 4852.99,287.033C4834.85,287.033 4828.55,274.439 4828.55,252.217L4828.55,155.55L4875.22,155.55L4875.22,130.739L4828.55,130.739L4828.55,79.256L4796.7,87.772Z" style="fill:#231f20;fill-rule:nonzero;"/><path d="M4944.48,309.994L4944.48,130.739L4911.88,130.739L4911.88,309.994L4944.48,309.994ZM4928.18,59.994C4916.33,59.994 4907.81,68.883 4907.81,80.367C4907.81,91.478 4915.96,100.367 4927.44,100.367C4940.41,100.367 4948.55,91.478 4948.18,80.367C4948.18,68.883 4940.41,59.994 4928.18,59.994Z" style="fill:#231f20;fill-rule:nonzero;"/><path d="M5074.48,126.661C5024.85,126.661 4985.59,161.85 4985.59,221.85C4985.59,278.517 5022.99,314.072 5071.52,314.072C5114.85,314.072 5160.77,285.183 5160.77,218.883C5160.77,164.072 5125.96,126.661 5074.48,126.661ZM5073.74,151.106C5112.26,151.106 5127.44,189.628 5127.44,219.994C5127.44,260.367 5104.11,289.628 5072.99,289.628C5041.14,289.628 5018.55,259.994 5018.55,220.739C5018.55,186.661 5035.22,151.106 5073.74,151.106Z" style="fill:#231f20;fill-rule:nonzero;"/><g><path d="M4777.66,1536.37L4730.24,1785.99L4760.99,1785.99L4808.39,1536.37L4777.66,1536.37Z" style="fill:#231f20;fill-rule:nonzero;"/><path d="M4846.54,1785.99L4862.84,1698.96C4870.99,1654.51 4902.1,1628.22 4923.95,1628.22C4945.06,1628.22 4952.1,1641.55 4952.1,1659.7C4952.1,1667.11 4950.99,1675.62 4949.51,1682.66L4929.88,1785.99L4960.62,1785.99L4980.62,1681.55C4982.47,1671.92 4983.95,1660.44 4983.95,1652.66C4983.95,1614.88 4959.88,1602.66 4938.39,1602.66C4912.1,1602.66 4888.02,1616.73 4872.1,1641.92L4871.36,1641.92L4875.8,1606.73L4848.39,1606.73C4846.17,1621.55 4843.95,1638.96 4839.88,1658.96L4815.8,1785.99L4846.54,1785.99Z" style="fill:#231f20;fill-rule:nonzero;"/><path d="M5166.17,1785.99L5297.66,1536.37L5263.58,1536.37L5184.32,1692.29C5170.62,1718.59 5163.21,1737.11 5156.91,1752.66L5155.8,1752.66C5155.43,1736.37 5153.95,1721.92 5150.99,1696.37L5132.84,1536.37L5101.36,1536.37L5132.47,1785.99L5166.17,1785.99Z" style="fill:#231f20;fill-rule:nonzero;"/><path d="M5308.39,1785.99L5342.84,1606.73L5312.1,1606.73L5277.66,1785.99L5308.39,1785.99ZM5335.43,1575.99C5347.28,1575.99 5355.8,1567.48 5356.17,1555.26C5356.17,1544.14 5349.13,1535.99 5338.02,1535.99C5326.91,1535.99 5317.66,1544.88 5317.66,1556.73C5317.66,1567.84 5324.69,1575.99 5335.43,1575.99Z" style="fill:#231f20;fill-rule:nonzero;"/><path d="M5370.99,1606.73L5402.1,1785.99L5432.47,1785.99L5532.1,1606.73L5498.39,1606.73L5443.58,1711.18C5433.21,1731.55 5428.39,1743.4 5424.69,1753.03L5423.58,1753.03C5422.84,1743.03 5420.62,1729.33 5418.02,1708.96L5402.47,1606.73L5370.99,1606.73Z" style="fill:#231f20;fill-rule:nonzero;"/><path d="M5629.89,1602.66C5571.73,1602.66 5530.62,1657.48 5530.62,1716.37C5530.62,1756.73 5555.8,1790.07 5600.61,1790.07C5660.61,1790.07 5699.89,1732.66 5699.89,1677.48C5699.89,1639.33 5678.39,1602.66 5629.89,1602.66ZM5626.56,1627.11C5658.78,1627.11 5668.39,1656.37 5668.39,1677.11C5668.39,1718.96 5641,1765.62 5604.67,1765.62C5578.39,1765.62 5562.47,1744.51 5562.47,1715.26C5562.1,1674.14 5588.02,1627.11 5626.56,1627.11Z" style="fill:#231f20;fill-rule:nonzero;"/><path d="M5940.11,1642.29L5843.11,1642.29L5843.11,1563.4L5945.67,1563.4L5945.67,1536.37L5810.89,1536.37L5810.89,1785.99L5951.22,1785.99L5951.22,1758.96L5843.11,1758.96L5843.11,1668.96L5940.11,1668.96L5940.11,1642.29Z" style="fill:#231f20;fill-rule:nonzero;"/><path d="M6135.33,1785.99L6135.33,1631.55L6178.28,1631.55L6178.28,1606.73L6134.94,1606.73L6134.94,1597.11C6134.94,1569.7 6142.33,1545.26 6169.78,1545.26C6179.39,1545.26 6185.67,1547.11 6190.89,1549.33L6194.94,1524.14C6188.67,1521.55 6179,1518.96 6167.17,1518.96C6152.33,1518.96 6136.06,1523.77 6123.83,1535.62C6108.67,1550.07 6102.72,1573.03 6102.72,1598.22L6102.72,1606.73L6027.56,1606.73L6027.56,1598.96C6027.56,1570.81 6034.56,1548.96 6060.11,1548.96C6067.56,1548.96 6074.56,1551.18 6079.39,1553.4L6086.06,1529.33C6080.5,1526.37 6070.89,1523.03 6060.5,1523.03C6040.5,1523.03 6025.67,1529.33 6015.33,1539.7C6001.22,1553.77 5995.33,1575.62 5995.33,1600.81L5995.33,1606.73L5970.11,1606.73L5970.11,1631.55L5995.33,1631.55L5995.33,1785.99L6027.56,1785.99L6027.56,1631.55L6102.72,1631.55L6102.72,1785.99L6135.33,1785.99Z" style="fill:#231f20;fill-rule:nonzero;"/><path d="M6347.17,1702.29C6347.56,1698.96 6348.28,1693.77 6348.28,1687.11C6348.28,1654.14 6332.72,1602.66 6274.22,1602.66C6222,1602.66 6190.11,1645.26 6190.11,1699.33C6190.11,1753.4 6223.11,1789.7 6278.28,1789.7C6306.78,1789.7 6326.44,1783.77 6337.89,1778.59L6332.33,1755.26C6320.11,1760.44 6306.06,1764.51 6282.72,1764.51C6250.11,1764.51 6222,1746.37 6221.22,1702.29L6347.17,1702.29ZM6221.61,1678.96C6224.22,1656.37 6238.67,1625.99 6271.61,1625.99C6308.28,1625.99 6317.17,1658.22 6316.78,1678.96L6221.61,1678.96Z" style="fill:#231f20;fill-rule:nonzero;"/><path d="M6510.89,1754.88C6501.61,1758.96 6489.39,1763.77 6470.89,1763.77C6435.33,1763.77 6408.67,1738.22 6408.67,1696.73C6408.67,1659.33 6430.89,1628.96 6472,1628.96C6489.78,1628.96 6502,1633.03 6509.78,1637.48L6517.17,1612.29C6508.28,1607.84 6491.22,1603.03 6472,1603.03C6413.44,1603.03 6375.67,1643.03 6375.67,1698.22C6375.67,1753.03 6410.89,1789.7 6464.94,1789.7C6489,1789.7 6507.89,1783.77 6516.44,1779.33L6510.89,1754.88Z" style="fill:#231f20;fill-rule:nonzero;"/><path d="M6566.78,1563.77L6566.78,1606.73L6539,1606.73L6539,1631.55L6566.78,1631.55L6566.78,1729.33C6566.78,1750.44 6570.11,1766.37 6579.39,1775.99C6587.17,1784.88 6599.39,1789.7 6614.56,1789.7C6627.17,1789.7 6637.17,1787.84 6643.44,1785.26L6642,1760.81C6637.89,1761.92 6631.61,1763.03 6623.11,1763.03C6604.94,1763.03 6598.67,1750.44 6598.67,1728.22L6598.67,1631.55L6645.33,1631.55L6645.33,1606.73L6598.67,1606.73L6598.67,1555.26L6566.78,1563.77Z" style="fill:#231f20;fill-rule:nonzero;"/></g><path d="M3900.58,2358.41C3887.62,2364.71 3867.62,2368.78 3847.98,2368.78C3787.24,2368.78 3752.06,2329.52 3752.06,2268.41C3752.06,2202.86 3790.95,2165.45 3849.47,2165.45C3870.21,2165.45 3887.62,2169.89 3899.84,2175.82L3907.62,2149.52C3899.09,2145.08 3879.47,2138.41 3848.36,2138.41C3770.95,2138.41 3717.98,2191.37 3717.98,2269.52C3717.98,2351.37 3770.95,2395.82 3841.32,2395.82C3871.69,2395.82 3895.39,2389.89 3907.24,2383.97L3900.58,2358.41Z" style="fill:#231f20;fill-rule:nonzero;"/><path d="M4086.51,2308.41C4086.87,2305.08 4087.62,2299.89 4087.62,2293.23C4087.62,2260.26 4072.06,2208.78 4013.54,2208.78C3961.32,2208.78 3929.47,2251.37 3929.47,2305.45C3929.47,2359.52 3962.43,2395.82 4017.62,2395.82C4046.13,2395.82 4065.76,2389.89 4077.24,2384.71L4071.69,2361.37C4059.47,2366.56 4045.39,2370.63 4022.06,2370.63C3989.47,2370.63 3961.32,2352.48 3960.58,2308.41L4086.51,2308.41ZM3960.95,2285.08C3963.54,2262.48 3977.98,2232.12 4010.95,2232.12C4047.62,2232.12 4056.51,2264.34 4056.13,2285.08L3960.95,2285.08Z" style="fill:#231f20;fill-rule:nonzero;"/><rect x="4127.98" y="2129.15" width="32.594" height="262.961" style="fill:#231f20;"/><rect x="4215.39" y="2129.15" width="32.594" height="262.961" style="fill:#231f20;"/><path d="M3163.79,2909.89L3196.01,2909.89L3196.01,2812.48L3196.75,2812.48C3207.49,2830.26 3228.23,2840.63 3251.93,2840.63C3294.16,2840.63 3333.42,2808.78 3333.42,2744.34C3333.42,2689.89 3300.82,2653.23 3257.49,2653.23C3228.23,2653.23 3207.12,2666.19 3193.79,2688.04L3193.04,2688.04L3191.57,2657.3L3162.31,2657.3C3163.04,2674.34 3163.79,2692.86 3163.79,2715.82L3163.79,2909.89ZM3196.01,2732.86C3196.01,2728.41 3197.12,2723.59 3198.23,2719.52C3204.53,2695.08 3225.27,2679.15 3247.49,2679.15C3281.93,2679.15 3300.82,2709.89 3300.82,2745.82C3300.82,2786.93 3280.82,2815.08 3246.38,2815.08C3223.04,2815.08 3203.42,2799.52 3197.49,2776.93C3196.75,2772.86 3196.01,2768.41 3196.01,2763.59L3196.01,2732.86Z" style="fill:#231f20;fill-rule:nonzero;"/><path d="M3450.46,2653.23C3400.82,2653.23 3361.57,2688.41 3361.57,2748.41C3361.57,2805.08 3398.97,2840.63 3447.49,2840.63C3490.82,2840.63 3536.75,2811.74 3536.75,2745.45C3536.75,2690.63 3501.93,2653.23 3450.46,2653.23ZM3449.71,2677.67C3488.23,2677.67 3503.42,2716.19 3503.42,2746.56C3503.42,2786.93 3480.08,2816.19 3448.97,2816.19C3417.12,2816.19 3394.53,2786.56 3394.53,2747.3C3394.53,2713.23 3411.19,2677.67 3449.71,2677.67Z" style="fill:#231f20;fill-rule:nonzero;"/><path d="M3577.86,2909.89L3610.08,2909.89L3610.08,2812.48L3610.82,2812.48C3621.57,2830.26 3642.31,2840.63 3666.01,2840.63C3708.23,2840.63 3747.49,2808.78 3747.49,2744.34C3747.49,2689.89 3714.9,2653.23 3671.57,2653.23C3642.31,2653.23 3621.19,2666.19 3607.86,2688.04L3607.12,2688.04L3605.64,2657.3L3576.38,2657.3C3577.12,2674.34 3577.86,2692.86 3577.86,2715.82L3577.86,2909.89ZM3610.08,2732.86C3610.08,2728.41 3611.19,2723.59 3612.31,2719.52C3618.6,2695.08 3639.34,2679.15 3661.57,2679.15C3696.01,2679.15 3714.9,2709.89 3714.9,2745.82C3714.9,2786.93 3694.9,2815.08 3660.46,2815.08C3637.12,2815.08 3617.49,2799.52 3611.57,2776.93C3610.82,2772.86 3610.08,2768.41 3610.08,2763.59L3610.08,2732.86Z" style="fill:#231f20;fill-rule:nonzero;"/><path d="M3938.6,2657.3L3906.01,2657.3L3906.01,2767.3C3906.01,2773.23 3904.9,2779.15 3903.04,2783.97C3897.12,2798.41 3881.93,2813.59 3860.08,2813.59C3830.46,2813.59 3820.08,2790.63 3820.08,2756.56L3820.08,2657.3L3787.49,2657.3L3787.49,2762.12C3787.49,2825.08 3821.19,2840.63 3849.34,2840.63C3881.19,2840.63 3900.08,2821.74 3908.6,2807.3L3909.34,2807.3L3911.19,2836.56L3940.08,2836.56C3938.97,2822.48 3938.6,2806.19 3938.6,2787.67L3938.6,2657.3Z" style="fill:#231f20;fill-rule:nonzero;"/><rect x="3992.68" y="2573.59" width="32.594" height="262.961" style="fill:#231f20;"/><path d="M4208.97,2836.56C4206.75,2824.34 4206.01,2809.15 4206.01,2793.59L4206.01,2726.56C4206.01,2690.63 4192.68,2653.23 4137.86,2653.23C4115.27,2653.23 4093.79,2659.52 4078.97,2669.15L4086.38,2690.63C4098.97,2682.48 4116.38,2677.3 4133.04,2677.3C4169.71,2677.3 4173.79,2703.97 4173.79,2718.78L4173.79,2722.48C4104.53,2722.12 4066.01,2745.82 4066.01,2789.15C4066.01,2815.08 4084.53,2840.63 4120.82,2840.63C4146.38,2840.63 4165.64,2828.04 4175.64,2813.97L4176.75,2813.97L4179.34,2836.56L4208.97,2836.56ZM4174.53,2776.19C4174.53,2779.52 4173.79,2783.23 4172.68,2786.56C4167.49,2801.74 4152.68,2816.56 4129.34,2816.56C4112.68,2816.56 4098.6,2806.56 4098.6,2785.45C4098.6,2750.63 4138.97,2744.34 4174.53,2745.08L4174.53,2776.19Z" style="fill:#231f20;fill-rule:nonzero;"/><path d="M4264.53,2614.34L4264.53,2657.3L4236.75,2657.3L4236.75,2682.12L4264.53,2682.12L4264.53,2779.89C4264.53,2801.01 4267.86,2816.93 4277.12,2826.56C4284.9,2835.45 4297.12,2840.26 4312.31,2840.26C4324.9,2840.26 4334.9,2838.41 4341.19,2835.82L4339.71,2811.37C4335.64,2812.48 4329.34,2813.59 4320.82,2813.59C4302.68,2813.59 4296.38,2801.01 4296.38,2778.78L4296.38,2682.12L4343.04,2682.12L4343.04,2657.3L4296.38,2657.3L4296.38,2605.82L4264.53,2614.34Z" style="fill:#231f20;fill-rule:nonzero;"/><path d="M4412.31,2836.56L4412.31,2657.3L4379.71,2657.3L4379.71,2836.56L4412.31,2836.56ZM4396.01,2586.56C4384.16,2586.56 4375.64,2595.45 4375.64,2606.93C4375.64,2618.04 4383.79,2626.93 4395.27,2626.93C4408.23,2626.93 4416.38,2618.04 4416.01,2606.93C4416.01,2595.45 4408.23,2586.56 4396.01,2586.56Z" style="fill:#231f20;fill-rule:nonzero;"/><path d="M4542.31,2653.23C4492.68,2653.23 4453.42,2688.41 4453.42,2748.41C4453.42,2805.08 4490.82,2840.63 4539.34,2840.63C4582.68,2840.63 4628.6,2811.74 4628.6,2745.45C4628.6,2690.63 4593.79,2653.23 4542.31,2653.23ZM4541.57,2677.67C4580.08,2677.67 4595.27,2716.19 4595.27,2746.56C4595.27,2786.93 4571.93,2816.19 4540.82,2816.19C4508.97,2816.19 4486.38,2786.56 4486.38,2747.3C4486.38,2713.23 4503.04,2677.67 4541.57,2677.67Z" style="fill:#231f20;fill-rule:nonzero;"/><path d="M4669.71,2836.56L4702.31,2836.56L4702.31,2728.78C4702.31,2723.23 4703.04,2717.67 4704.53,2713.59C4710.08,2695.45 4726.75,2680.26 4748.23,2680.26C4778.97,2680.26 4789.71,2704.34 4789.71,2733.23L4789.71,2836.56L4822.31,2836.56L4822.31,2729.52C4822.31,2668.04 4783.79,2653.23 4758.97,2653.23C4729.34,2653.23 4708.6,2669.89 4699.71,2686.93L4698.97,2686.93L4697.12,2657.3L4668.23,2657.3C4669.34,2672.12 4669.71,2687.3 4669.71,2705.82L4669.71,2836.56Z" style="fill:#231f20;fill-rule:nonzero;"/><path d="M3318.11,3281.01L3350.33,3281.01L3350.33,3185.45C3350.33,3179.89 3351.07,3174.71 3351.81,3170.26C3356.26,3145.82 3372.55,3128.41 3395.52,3128.41C3399.96,3128.41 3403.29,3128.78 3406.63,3129.52L3406.63,3098.78C3403.66,3098.04 3401.07,3097.67 3397.37,3097.67C3375.52,3097.67 3355.88,3112.86 3347.74,3136.93L3346.26,3136.93L3345.14,3101.74L3316.63,3101.74C3317.74,3118.41 3318.11,3136.56 3318.11,3157.67L3318.11,3281.01Z" style="fill:#231f20;fill-rule:nonzero;"/><path d="M3579.59,3197.3C3579.96,3193.97 3580.7,3188.78 3580.7,3182.12C3580.7,3149.15 3565.14,3097.67 3506.63,3097.67C3454.41,3097.67 3422.55,3140.26 3422.55,3194.34C3422.55,3248.41 3455.52,3284.71 3510.7,3284.71C3539.22,3284.71 3558.85,3278.78 3570.33,3273.59L3564.77,3250.26C3552.55,3255.45 3538.48,3259.52 3515.14,3259.52C3482.55,3259.52 3454.41,3241.37 3453.66,3197.3L3579.59,3197.3ZM3454.03,3173.97C3456.63,3151.37 3471.07,3121.01 3504.03,3121.01C3540.7,3121.01 3549.59,3153.23 3549.22,3173.97L3454.03,3173.97Z" style="fill:#231f20;fill-rule:nonzero;"/><path d="M3608.48,3272.48C3621.07,3279.89 3639.22,3284.71 3658.85,3284.71C3701.44,3284.71 3725.88,3262.48 3725.88,3231.01C3725.88,3204.34 3709.96,3188.78 3678.85,3176.93C3655.52,3168.04 3644.77,3161.37 3644.77,3146.56C3644.77,3133.23 3655.52,3122.12 3674.77,3122.12C3691.44,3122.12 3704.41,3128.04 3711.44,3132.48L3719.59,3108.78C3709.59,3102.86 3693.66,3097.67 3675.52,3097.67C3636.99,3097.67 3613.66,3121.37 3613.66,3150.26C3613.66,3171.74 3628.85,3189.52 3661.07,3201.01C3685.14,3209.89 3694.41,3218.41 3694.41,3233.97C3694.41,3248.78 3683.29,3260.63 3659.59,3260.63C3643.29,3260.63 3626.26,3253.97 3616.63,3247.67L3608.48,3272.48Z" style="fill:#231f20;fill-rule:nonzero;"/><path d="M3767.74,3354.34L3799.96,3354.34L3799.96,3256.93L3800.7,3256.93C3811.44,3274.71 3832.18,3285.08 3855.88,3285.08C3898.11,3285.08 3937.37,3253.23 3937.37,3188.78C3937.37,3134.34 3904.77,3097.67 3861.44,3097.67C3832.18,3097.67 3811.07,3110.63 3797.74,3132.48L3796.99,3132.48L3795.52,3101.74L3766.26,3101.74C3766.99,3118.78 3767.74,3137.3 3767.74,3160.26L3767.74,3354.34ZM3799.96,3177.3C3799.96,3172.86 3801.07,3168.04 3802.18,3163.97C3808.48,3139.52 3829.22,3123.59 3851.44,3123.59C3885.88,3123.59 3904.77,3154.34 3904.77,3190.26C3904.77,3231.37 3884.77,3259.52 3850.33,3259.52C3826.99,3259.52 3807.37,3243.97 3801.44,3221.37C3800.7,3217.3 3799.96,3212.86 3799.96,3208.04L3799.96,3177.3Z" style="fill:#231f20;fill-rule:nonzero;"/><path d="M4054.41,3097.67C4004.77,3097.67 3965.52,3132.86 3965.52,3192.86C3965.52,3249.52 4002.92,3285.08 4051.44,3285.08C4094.77,3285.08 4140.7,3256.19 4140.7,3189.89C4140.7,3135.08 4105.88,3097.67 4054.41,3097.67ZM4053.66,3122.12C4092.18,3122.12 4107.37,3160.63 4107.37,3191.01C4107.37,3231.37 4084.03,3260.63 4052.92,3260.63C4021.07,3260.63 3998.48,3231.01 3998.48,3191.74C3998.48,3157.67 4015.14,3122.12 4053.66,3122.12Z" style="fill:#231f20;fill-rule:nonzero;"/><path d="M4181.81,3281.01L4214.41,3281.01L4214.41,3173.23C4214.41,3167.67 4215.14,3162.12 4216.63,3158.04C4222.18,3139.89 4238.85,3124.71 4260.33,3124.71C4291.07,3124.71 4301.81,3148.78 4301.81,3177.67L4301.81,3281.01L4334.41,3281.01L4334.41,3173.97C4334.41,3112.48 4295.88,3097.67 4271.07,3097.67C4241.44,3097.67 4220.7,3114.34 4211.81,3131.37L4211.07,3131.37L4209.22,3101.74L4180.33,3101.74C4181.44,3116.56 4181.81,3131.74 4181.81,3150.26L4181.81,3281.01Z" style="fill:#231f20;fill-rule:nonzero;"/><path d="M4374.77,3272.48C4387.37,3279.89 4405.52,3284.71 4425.14,3284.71C4467.74,3284.71 4492.18,3262.48 4492.18,3231.01C4492.18,3204.34 4476.26,3188.78 4445.14,3176.93C4421.81,3168.04 4411.07,3161.37 4411.07,3146.56C4411.07,3133.23 4421.81,3122.12 4441.07,3122.12C4457.74,3122.12 4470.7,3128.04 4477.74,3132.48L4485.88,3108.78C4475.88,3102.86 4459.96,3097.67 4441.81,3097.67C4403.29,3097.67 4379.96,3121.37 4379.96,3150.26C4379.96,3171.74 4395.14,3189.52 4427.37,3201.01C4451.44,3209.89 4460.7,3218.41 4460.7,3233.97C4460.7,3248.78 4449.59,3260.63 4425.88,3260.63C4409.59,3260.63 4392.55,3253.97 4382.92,3247.67L4374.77,3272.48Z" style="fill:#231f20;fill-rule:nonzero;"/><path d="M4678.11,3197.3C4678.48,3193.97 4679.22,3188.78 4679.22,3182.12C4679.22,3149.15 4663.66,3097.67 4605.14,3097.67C4552.92,3097.67 4521.07,3140.26 4521.07,3194.34C4521.07,3248.41 4554.03,3284.71 4609.22,3284.71C4637.74,3284.71 4657.37,3278.78 4668.85,3273.59L4663.29,3250.26C4651.07,3255.45 4636.99,3259.52 4613.66,3259.52C4581.07,3259.52 4552.92,3241.37 4552.18,3197.3L4678.11,3197.3ZM4552.55,3173.97C4555.14,3151.37 4569.59,3121.01 4602.55,3121.01C4639.22,3121.01 4648.11,3153.23 4647.74,3173.97L4552.55,3173.97Z" style="fill:#231f20;fill-rule:nonzero;"/><path d="M1378.16,231.106L1388.16,309.994L1419.64,309.994L1385.2,60.367L1348.9,60.367L1219.64,309.994L1252.23,309.994L1291.87,231.106L1378.16,231.106ZM1302.98,206.661L1340.38,134.072C1347.79,118.883 1354.09,103.328 1360.76,88.517L1361.49,88.517C1362.61,103.328 1364.46,121.478 1365.94,134.439L1375.57,206.661L1302.98,206.661Z" style="fill:#231f20;fill-rule:nonzero;"/><path d="M1718.53,52.589C1712.23,47.772 1694.83,42.961 1678.16,42.961C1631.49,42.961 1601.12,72.961 1592.23,121.478L1590.76,130.739L1517.79,130.739L1519.27,122.961C1522.61,105.55 1527.79,90.739 1537.05,81.85C1542.98,75.922 1550.38,72.589 1560.01,72.589C1567.05,72.589 1573.72,74.811 1578.9,78.144L1590.01,54.811C1584.09,51.106 1574.09,47.033 1561.87,47.033C1541.87,47.033 1527.05,54.439 1515.94,65.55C1501.49,79.994 1492.98,101.478 1489.27,121.85L1487.42,130.739L1463.34,130.739L1458.9,154.811L1482.61,154.811L1453.34,309.994L1483.72,309.994L1513.34,154.811L1585.94,154.811L1556.31,309.994L1587.05,309.994L1616.31,154.811L1681.49,154.811L1652.23,309.994L1682.98,309.994L1717.05,130.739L1621.12,130.739L1622.23,122.217C1627.42,93.328 1641.49,68.517 1673.72,68.517C1688.53,68.517 1701.49,72.589 1708.9,76.661L1718.53,52.589Z" style="fill:#231f20;fill-rule:nonzero;"/><path d="M1767.42,309.994L1783.72,222.961C1791.87,178.517 1822.98,152.217 1844.83,152.217C1865.94,152.217 1872.98,165.55 1872.98,183.7C1872.98,191.106 1871.87,199.628 1870.38,206.661L1850.76,309.994L1881.49,309.994L1901.49,205.55C1903.34,195.922 1904.83,184.439 1904.83,176.661C1904.83,138.883 1880.76,126.661 1859.27,126.661C1832.98,126.661 1808.9,140.739 1792.98,165.922L1792.23,165.922L1796.68,130.739L1769.27,130.739C1767.05,145.55 1764.83,162.961 1760.76,182.961L1736.68,309.994L1767.42,309.994Z" style="fill:#231f20;fill-rule:nonzero;"/><path d="M1965.2,309.994L1999.64,130.739L1968.9,130.739L1934.46,309.994L1965.2,309.994ZM1992.23,99.994C2004.09,99.994 2012.61,91.478 2012.98,79.256C2012.98,68.144 2005.94,59.994 1994.83,59.994C1983.72,59.994 1974.46,68.883 1974.46,80.739C1974.46,91.85 1981.49,99.994 1992.23,99.994Z" style="fill:#231f20;fill-rule:nonzero;"/><path d="M2067.79,90.367L2060.01,130.739L2034.46,130.739L2029.64,154.811L2055.57,154.811L2037.79,245.55C2035.2,258.517 2034.09,268.883 2034.09,279.256C2034.09,297.406 2044.46,314.072 2071.87,314.072C2080.76,314.072 2090.01,312.961 2095.57,310.739L2097.05,286.661C2092.98,287.406 2087.79,287.772 2082.61,287.772C2070.76,287.772 2065.57,281.478 2065.57,270.739C2065.57,261.106 2067.05,251.85 2068.9,241.85L2085.57,154.811L2128.53,154.811L2133.34,130.739L2090.38,130.739L2099.64,82.589L2067.79,90.367Z" style="fill:#231f20;fill-rule:nonzero;"/><path d="M2165.94,309.994L2200.38,130.739L2169.64,130.739L2135.2,309.994L2165.94,309.994ZM2192.98,99.994C2204.83,99.994 2213.34,91.478 2213.72,79.256C2213.72,68.144 2206.68,59.994 2195.57,59.994C2184.46,59.994 2175.2,68.883 2175.2,80.739C2175.2,91.85 2182.23,99.994 2192.98,99.994Z" style="fill:#231f20;fill-rule:nonzero;"/><path d="M2344.83,276.661C2333.72,282.589 2317.79,289.256 2296.68,289.256C2278.16,289.256 2263.72,281.106 2256.68,265.183C2252.61,255.55 2251.49,238.883 2252.98,231.106C2319.27,232.217 2372.23,219.628 2372.23,172.589C2372.23,147.033 2353.72,126.661 2319.64,126.661C2261.87,126.661 2221.87,187.772 2221.87,241.85C2221.87,281.478 2242.61,313.7 2290.01,313.7C2314.09,313.7 2335.94,307.406 2349.27,299.628L2344.83,276.661ZM2342.61,173.7C2342.61,201.478 2304.83,207.772 2256.68,207.406C2264.09,179.256 2285.94,150.739 2315.2,150.739C2331.49,150.739 2342.61,158.883 2342.61,173.7Z" style="fill:#231f20;fill-rule:nonzero;"/><path d="M2380.76,301.478C2388.9,307.772 2405.94,313.7 2425.2,313.7C2462.98,313.7 2493.72,292.589 2493.72,254.811C2493.72,234.811 2480.01,219.256 2460.01,207.772C2444.09,198.883 2435.57,190.739 2435.57,177.772C2435.57,162.217 2448.9,150.739 2467.42,150.739C2480.76,150.739 2492.23,155.183 2498.53,158.883L2507.05,135.55C2500.38,131.106 2485.94,126.661 2469.64,126.661C2431.87,126.661 2404.83,150.739 2404.83,182.217C2404.83,200.367 2416.31,216.294 2437.05,227.772C2455.57,238.144 2461.87,246.661 2461.87,260.739C2461.87,276.661 2448.53,289.994 2427.79,289.994C2413.34,289.994 2397.79,284.072 2389.27,278.883L2380.76,301.478Z" style="fill:#231f20;fill-rule:nonzero;"/><path d="M678.572,2597.37L688.572,2676.26L720.05,2676.26L685.606,2426.62L649.311,2426.62L520.05,2676.26L552.644,2676.26L592.272,2597.37L678.572,2597.37ZM603.383,2572.92L640.794,2500.33C648.2,2485.14 654.494,2469.59 661.161,2454.77L661.906,2454.77C663.017,2469.59 664.867,2487.73 666.35,2500.7L675.978,2572.92L603.383,2572.92Z" style="fill:#231f20;fill-rule:nonzero;"/><path d="M1018.94,2418.84C1012.64,2414.03 995.239,2409.22 978.572,2409.22C931.906,2409.22 901.533,2439.22 892.644,2487.73L891.161,2496.99L818.2,2496.99L819.683,2489.22C823.017,2471.81 828.2,2456.99 837.461,2448.11C843.383,2442.18 850.794,2438.84 860.422,2438.84C867.461,2438.84 874.128,2441.07 879.311,2444.4L890.422,2421.07C884.494,2417.37 874.494,2413.29 862.272,2413.29C842.272,2413.29 827.461,2420.7 816.35,2431.81C801.906,2446.26 793.383,2467.73 789.683,2488.11L787.828,2496.99L763.756,2496.99L759.311,2521.07L783.017,2521.07L753.756,2676.26L784.128,2676.26L813.756,2521.07L886.35,2521.07L856.717,2676.26L887.461,2676.26L916.717,2521.07L981.906,2521.07L952.644,2676.26L983.383,2676.26L1017.46,2496.99L921.533,2496.99L922.644,2488.48C927.828,2459.59 941.906,2434.77 974.128,2434.77C988.939,2434.77 1001.91,2438.84 1009.31,2442.92L1018.94,2418.84Z" style="fill:#231f20;fill-rule:nonzero;"/><path d="M1067.83,2676.26L1084.13,2589.22C1092.27,2544.77 1123.38,2518.48 1145.24,2518.48C1166.35,2518.48 1173.38,2531.81 1173.38,2549.96C1173.38,2557.37 1172.27,2565.88 1170.79,2572.92L1151.16,2676.26L1181.91,2676.26L1201.91,2571.81C1203.76,2562.18 1205.24,2550.7 1205.24,2542.92C1205.24,2505.14 1181.16,2492.92 1159.68,2492.92C1133.38,2492.92 1109.31,2506.99 1093.38,2532.18L1092.64,2532.18L1097.09,2496.99L1069.68,2496.99C1067.46,2511.81 1065.24,2529.22 1061.16,2549.22L1037.09,2676.26L1067.83,2676.26Z" style="fill:#231f20;fill-rule:nonzero;"/><path d="M1265.61,2676.26L1300.05,2496.99L1269.31,2496.99L1234.87,2676.26L1265.61,2676.26ZM1292.64,2466.26C1304.49,2466.26 1313.02,2457.73 1313.38,2445.51C1313.38,2434.4 1306.35,2426.26 1295.24,2426.26C1284.13,2426.26 1274.87,2435.14 1274.87,2446.99C1274.87,2458.11 1281.91,2466.26 1292.64,2466.26Z" style="fill:#231f20;fill-rule:nonzero;"/><path d="M1368.2,2456.62L1360.42,2496.99L1334.87,2496.99L1330.05,2521.07L1355.98,2521.07L1338.2,2611.81C1335.61,2624.77 1334.49,2635.14 1334.49,2645.51C1334.49,2663.66 1344.87,2680.33 1372.27,2680.33C1381.16,2680.33 1390.42,2679.22 1395.98,2676.99L1397.46,2652.92C1393.38,2653.66 1388.2,2654.03 1383.02,2654.03C1371.16,2654.03 1365.98,2647.73 1365.98,2636.99C1365.98,2627.37 1367.46,2618.11 1369.31,2608.11L1385.98,2521.07L1428.94,2521.07L1433.76,2496.99L1390.79,2496.99L1400.05,2448.84L1368.2,2456.62Z" style="fill:#231f20;fill-rule:nonzero;"/><path d="M1466.35,2676.26L1500.79,2496.99L1470.05,2496.99L1435.61,2676.26L1466.35,2676.26ZM1493.38,2466.26C1505.24,2466.26 1513.76,2457.73 1514.13,2445.51C1514.13,2434.4 1507.09,2426.26 1495.98,2426.26C1484.87,2426.26 1475.61,2435.14 1475.61,2446.99C1475.61,2458.11 1482.64,2466.26 1493.38,2466.26Z" style="fill:#231f20;fill-rule:nonzero;"/><path d="M1645.24,2642.92C1634.13,2648.84 1618.2,2655.51 1597.09,2655.51C1578.57,2655.51 1564.13,2647.37 1557.09,2631.44C1553.02,2621.81 1551.91,2605.14 1553.38,2597.37C1619.68,2598.48 1672.64,2585.88 1672.64,2538.84C1672.64,2513.29 1654.13,2492.92 1620.05,2492.92C1562.27,2492.92 1522.27,2554.03 1522.27,2608.11C1522.27,2647.73 1543.02,2679.96 1590.42,2679.96C1614.49,2679.96 1636.35,2673.66 1649.68,2665.88L1645.24,2642.92ZM1643.02,2539.96C1643.02,2567.73 1605.24,2574.03 1557.09,2573.66C1564.49,2545.51 1586.35,2516.99 1615.61,2516.99C1631.91,2516.99 1643.02,2525.14 1643.02,2539.96Z" style="fill:#231f20;fill-rule:nonzero;"/><path d="M1681.16,2667.73C1689.31,2674.03 1706.35,2679.96 1725.61,2679.96C1763.38,2679.96 1794.13,2658.84 1794.13,2621.07C1794.13,2601.07 1780.42,2585.51 1760.42,2574.03C1744.49,2565.14 1735.98,2556.99 1735.98,2544.03C1735.98,2528.48 1749.31,2516.99 1767.83,2516.99C1781.16,2516.99 1792.64,2521.44 1798.94,2525.14L1807.46,2501.81C1800.79,2497.37 1786.35,2492.92 1770.05,2492.92C1732.27,2492.92 1705.24,2516.99 1705.24,2548.48C1705.24,2566.62 1716.72,2582.55 1737.46,2594.03C1755.98,2604.4 1762.27,2612.92 1762.27,2626.99C1762.27,2642.92 1748.94,2656.26 1728.2,2656.26C1713.76,2656.26 1698.2,2650.33 1689.68,2645.14L1681.16,2667.73Z" style="fill:#231f20;fill-rule:nonzero;"/><path d="M179.994,3260.21C166.289,3267.24 145.55,3270.94 126.661,3270.94C71.106,3270.94 50.733,3234.28 50.733,3189.46C50.733,3151.68 65.55,3116.5 88.883,3094.65C108.144,3076.5 134.439,3066.5 160.367,3066.5C182.589,3066.5 200.367,3071.32 209.622,3076.87L219.622,3052.06C212.956,3046.87 193.328,3039.83 165.55,3039.83C128.883,3039.83 97.033,3051.68 71.478,3073.54C37.033,3102.06 18.144,3146.87 18.144,3193.91C18.144,3257.61 56.289,3297.24 119.256,3297.24C147.4,3297.24 169.994,3291.68 184.067,3285.39L179.994,3260.21Z" style="fill:#231f20;fill-rule:nonzero;"/><path d="M338.144,3260.21C327.033,3266.13 311.106,3272.79 289.994,3272.79C271.478,3272.79 257.033,3264.65 249.994,3248.72C245.922,3239.09 244.811,3222.43 246.289,3214.65C312.589,3215.76 365.55,3203.17 365.55,3156.13C365.55,3130.57 347.033,3110.21 312.956,3110.21C255.178,3110.21 215.178,3171.32 215.178,3225.39C215.178,3265.02 235.922,3297.24 283.328,3297.24C307.4,3297.24 329.256,3290.94 342.589,3283.17L338.144,3260.21ZM335.922,3157.24C335.922,3185.02 298.144,3191.32 249.994,3190.94C257.4,3162.79 279.256,3134.28 308.511,3134.28C324.811,3134.28 335.922,3142.43 335.922,3157.24Z" style="fill:#231f20;fill-rule:nonzero;"/><path d="M411.844,3293.54L462.217,3030.57L431.478,3030.57L381.478,3293.54L411.844,3293.54Z" style="fill:#231f20;fill-rule:nonzero;"/><path d="M496.661,3293.54L547.033,3030.57L516.289,3030.57L466.289,3293.54L496.661,3293.54Z" style="fill:#231f20;fill-rule:nonzero;"/><path d="M768.144,3150.21L677.4,3150.21L692.589,3070.21L788.883,3070.21L794.067,3043.91L666.661,3043.91L619.256,3293.54L752.217,3293.54L757.4,3267.24L655.178,3267.24L672.217,3176.13L762.956,3176.13L768.144,3150.21Z" style="fill:#231f20;fill-rule:nonzero;"/><path d="M805.178,3114.28L846.661,3201.32L768.144,3293.54L803.7,3293.54L839.994,3248.72C847.772,3237.98 852.956,3229.83 858.511,3221.32L859.256,3221.32C863.7,3232.79 866.289,3239.83 872.217,3253.17L890.367,3293.54L923.7,3293.54L881.478,3201.68L957.033,3114.28L921.478,3114.28L888.511,3155.02C879.622,3166.13 875.922,3172.06 868.883,3182.06L867.772,3182.06C864.439,3173.91 860.733,3165.02 855.922,3153.54L838.511,3114.28L805.178,3114.28Z" style="fill:#231f20;fill-rule:nonzero;"/><path d="M969.994,3366.87L984.439,3289.46L985.178,3289.46C992.217,3293.54 1004.81,3297.61 1024.07,3297.61C1083.7,3297.61 1128.88,3237.98 1128.88,3175.02C1128.88,3142.06 1112.59,3110.21 1073.7,3110.21C1049.26,3110.21 1025.55,3124.65 1009.26,3147.98L1008.51,3147.98L1013.7,3114.28L985.55,3114.28C982.956,3132.43 979.256,3156.5 975.55,3177.98L939.622,3366.87L969.994,3366.87ZM998.883,3213.54C1008.14,3163.54 1038.51,3135.76 1062.59,3135.76C1088.51,3135.76 1097.03,3158.35 1097.03,3177.24C1097.03,3224.28 1063.7,3273.54 1024.07,3273.54C1009.62,3273.54 997.772,3269.83 989.994,3263.54L998.883,3213.54Z" style="fill:#231f20;fill-rule:nonzero;"/><path d="M1180.73,3293.54L1195.55,3214.65C1203.33,3172.79 1227.03,3140.57 1253.7,3140.57C1257.03,3140.57 1259.99,3140.94 1261.84,3141.32L1267.77,3110.94C1265.55,3110.57 1261.84,3110.21 1259.26,3110.21C1235.18,3110.21 1215.92,3128.72 1204.44,3153.17L1203.33,3153.17C1205.18,3139.46 1206.66,3126.87 1208.14,3114.28L1181.11,3114.28C1179.26,3130.94 1176.29,3154.65 1171.84,3177.98L1149.99,3293.54L1180.73,3293.54Z" style="fill:#231f20;fill-rule:nonzero;"/><path d="M1390.37,3260.21C1379.26,3266.13 1363.33,3272.79 1342.22,3272.79C1323.7,3272.79 1309.26,3264.65 1302.22,3248.72C1298.14,3239.09 1297.03,3222.43 1298.51,3214.65C1364.81,3215.76 1417.77,3203.17 1417.77,3156.13C1417.77,3130.57 1399.26,3110.21 1365.18,3110.21C1307.4,3110.21 1267.4,3171.32 1267.4,3225.39C1267.4,3265.02 1288.14,3297.24 1335.55,3297.24C1359.62,3297.24 1381.48,3290.94 1394.81,3283.17L1390.37,3260.21ZM1388.14,3157.24C1388.14,3185.02 1350.37,3191.32 1302.22,3190.94C1309.62,3162.79 1331.48,3134.28 1360.73,3134.28C1377.03,3134.28 1388.14,3142.43 1388.14,3157.24Z" style="fill:#231f20;fill-rule:nonzero;"/><path d="M1426.29,3285.02C1434.44,3291.32 1451.48,3297.24 1470.73,3297.24C1508.51,3297.24 1539.26,3276.13 1539.26,3238.35C1539.26,3218.35 1525.55,3202.79 1505.55,3191.32C1489.62,3182.43 1481.11,3174.28 1481.11,3161.32C1481.11,3145.76 1494.44,3134.28 1512.96,3134.28C1526.29,3134.28 1537.77,3138.72 1544.07,3142.43L1552.59,3119.09C1545.92,3114.65 1531.48,3110.21 1515.18,3110.21C1477.4,3110.21 1450.37,3134.28 1450.37,3165.76C1450.37,3183.91 1461.84,3199.83 1482.59,3211.32C1501.11,3221.68 1507.4,3230.21 1507.4,3244.28C1507.4,3260.21 1494.07,3273.54 1473.33,3273.54C1458.88,3273.54 1443.33,3267.61 1434.81,3262.43L1426.29,3285.02Z" style="fill:#231f20;fill-rule:nonzero;"/><path d="M1564.44,3285.02C1572.59,3291.32 1589.62,3297.24 1608.88,3297.24C1646.66,3297.24 1677.4,3276.13 1677.4,3238.35C1677.4,3218.35 1663.7,3202.79 1643.7,3191.32C1627.77,3182.43 1619.26,3174.28 1619.26,3161.32C1619.26,3145.76 1632.59,3134.28 1651.11,3134.28C1664.44,3134.28 1675.92,3138.72 1682.22,3142.43L1690.73,3119.09C1684.07,3114.65 1669.62,3110.21 1653.33,3110.21C1615.55,3110.21 1588.51,3134.28 1588.51,3165.76C1588.51,3183.91 1599.99,3199.83 1620.73,3211.32C1639.26,3221.68 1645.55,3230.21 1645.55,3244.28C1645.55,3260.21 1632.22,3273.54 1611.48,3273.54C1597.03,3273.54 1581.48,3267.61 1572.96,3262.43L1564.44,3285.02Z" style="fill:#231f20;fill-rule:nonzero;"/><path d="M1740.37,3293.54L1774.81,3114.28L1744.07,3114.28L1709.62,3293.54L1740.37,3293.54ZM1767.4,3083.54C1779.26,3083.54 1787.77,3075.02 1788.14,3062.79C1788.14,3051.68 1781.11,3043.54 1769.99,3043.54C1758.88,3043.54 1749.62,3052.43 1749.62,3064.28C1749.62,3075.39 1756.66,3083.54 1767.4,3083.54Z" style="fill:#231f20;fill-rule:nonzero;"/><path d="M1896.29,3110.21C1838.14,3110.21 1797.03,3165.02 1797.03,3223.91C1797.03,3264.28 1822.22,3297.61 1867.03,3297.61C1927.03,3297.61 1966.29,3240.21 1966.29,3185.02C1966.29,3146.87 1944.81,3110.21 1896.29,3110.21ZM1892.96,3134.65C1925.18,3134.65 1934.81,3163.91 1934.81,3184.65C1934.81,3226.5 1907.4,3273.17 1871.11,3273.17C1844.81,3273.17 1828.88,3252.06 1828.88,3222.79C1828.51,3181.68 1854.44,3134.65 1892.96,3134.65Z" style="fill:#231f20;fill-rule:nonzero;"/><path d="M2018.51,3293.54L2034.81,3206.5C2042.96,3162.06 2074.07,3135.76 2095.92,3135.76C2117.03,3135.76 2124.07,3149.09 2124.07,3167.24C2124.07,3174.65 2122.96,3183.17 2121.48,3190.21L2101.84,3293.54L2132.59,3293.54L2152.59,3189.09C2154.44,3179.46 2155.92,3167.98 2155.92,3160.21C2155.92,3122.43 2131.84,3110.21 2110.37,3110.21C2084.07,3110.21 2059.99,3124.28 2044.07,3149.46L2043.33,3149.46L2047.77,3114.28L2020.37,3114.28C2018.14,3129.09 2015.92,3146.5 2011.84,3166.5L1987.77,3293.54L2018.51,3293.54Z" style="fill:#231f20;fill-rule:nonzero;"/><path d="M2611.11,175.928L3401.23,175.928" style="fill:none;stroke:#231f20;stroke-width:30.89px;"/><path d="M3586.42,175.928C3490.74,209.878 3401.23,259.261 3324.07,324.072L3376.54,175.928L3324.07,30.867C3404.32,92.594 3490.74,141.978 3586.42,175.928Z" style="fill:#231f20;fill-rule:nonzero;"/><path d="M5200.62,395.061L5762.33,956.789" style="fill:none;stroke:#231f20;stroke-width:30.89px;"/><path d="M5892,1086.42C5799.39,1043.21 5703.72,1015.43 5601.83,1003.09L5743.83,938.272L5808.67,796.294C5821,898.15 5848.78,996.911 5892,1086.42Z" style="fill:#231f20;fill-rule:nonzero;"/><path d="M2086.42,2799.38L2629.63,2799.38" style="fill:none;stroke:#231f20;stroke-width:30.89px;"/><path d="M2814.82,2799.38C2719.13,2833.33 2629.63,2882.72 2552.47,2947.53L2604.94,2799.38L2552.47,2654.32C2632.72,2716.05 2719.13,2765.43 2814.82,2799.38Z" style="fill:#231f20;fill-rule:nonzero;"/><path d="M5200.62,2762.34L5762.33,2203.71" style="fill:none;stroke:#231f20;stroke-width:30.89px;"/><path d="M5892,2070.99C5848.78,2163.58 5821,2259.26 5808.67,2361.11L5743.83,2219.13L5601.83,2154.32C5703.72,2141.98 5802.44,2114.2 5892,2070.99Z" style="fill:#231f20;fill-rule:nonzero;"/></svg>