<?xml version="1.0" encoding="utf-8"?>
<!-- Generator: Adobe Illustrator 21.0.2, SVG Export Plug-In . SVG Version: 6.00 Build 0)  -->
<svg version="1.1" id="Layer_1" xmlns="http://www.w3.org/2000/svg" xmlns:xlink="http://www.w3.org/1999/xlink" x="0px" y="0px"
	 viewBox="0 0 227.3 151" style="enable-background:new 0 0 227.3 151;" xml:space="preserve">
<style type="text/css">
	.st0{fill:#030303;}
	.st1{fill:#2A2A2A;}
	.st2{fill:#161616;}
	.st3{fill:#141414;}
	.st4{fill:#1A1A1A;}
	.st5{fill:#282828;}
	.st6{fill:#0B0B0B;}
	.st7{fill:#070707;}
	.st8{fill:#464646;}
	.st9{fill:#444444;}
	.st10{fill:#434343;}
	.st11{fill:#C0C0C0;}
	.st12{fill:#AAAAAA;}
	.st13{fill:#9D9D9D;}
	.st14{fill:none;stroke:#A5A3A4;stroke-width:3;stroke-miterlimit:10;}
	.st15{fill:none;stroke:#A5A3A4;stroke-width:2;stroke-miterlimit:10;}
	.st16{fill:none;stroke:#000000;stroke-width:2;stroke-miterlimit:10;}
	.st17{fill:none;stroke:#000000;stroke-miterlimit:10;}
	.st18{font-family:'MyriadPro-Regular';}
	.st19{font-size:12px;}
</style>
<path class="st0" d="M163.5,129c-0.9-0.8-1.5-1.9-1.9-3.4c0-0.2,0-0.3,0-0.5c0.9-0.2,0.3-1,0.5-1.4c0.2-0.3,0.5-0.7,0.7-1
	c0.2-0.3,0.5-0.5,0.8-0.8c-0.8-1.1-0.5-2-0.2-3.1c0.3-0.9,0.1-2,0.1-2.9c0.4-0.6,0.7-1.1,1-1.7c0.6-1.4,1.7-1.9,3.2-2.1
	c1.9-0.2,3.4,0.8,5.1,1c0.3,0.1,0.6,0.6,0.8,1c0.4,0.7,0.6,1.5,1,2.4c0.6-0.1,1.1-0.1,1.4-0.3c1.5-1,3.2-1.7,4.9-1.9
	c2.2-0.3,4.2-1.4,6.5-1.2c0.9,0.1,1.9,0,2.8,0c0.3,0.4,0.7,0.8,0.7,1.2c0.1,0.8,0.4,1.5,0.5,2.2c0.2,2,0.1,4,0.1,5.9
	c0.7,0.8,1.3,1.5,1.9,2.2c0,0.9,0,1.8,0,2.8c-0.6,0.6-1.3,1.3-2,2c-0.9,0-1.6,0-2.4,0c-0.3-0.3-0.6-0.6-1-1
	c-0.2-0.2-0.3-0.3-0.5-0.5c-0.2-0.6-0.4-1.3-0.4-1.9c0-0.6,0.3-1.3,0.4-1.9c0.6-0.6,1.1-1.2,1.9-2c-0.1-2.1,0.3-4.7-0.8-7.1
	c-1.1,0-2.2,0-3.3,0c-0.8,0.8-1.7,1-2.7,0.9c-1.4-0.1-2.6,0.6-3.8,1.3c-0.3,0.2-0.7,0.4-1.2,0.7c1.4,0.8,2.5,1.4,3.7,2
	c0,0.7,0,1.2,0,1.7c1.8,0.2,2.9,1.1,3.7,2.5c0.6,2.3,0.6,2.3-1,4.3c-0.2,0-0.6-0.1-0.7,0c-1.2,1.1-2.3,0.2-3.2-0.4
	c-0.5-0.3-0.9-0.9-1.3-1.3c0-0.6,0-1.2,0-1.7c-0.1-1.1,1-1.7,1-2.9c-0.2-0.4-0.5-0.9-0.7-1.3c-1.9-0.8-3.5-2-5.7-2.1
	c0.3,1.2,0.5,2.3,0.7,3.2c1.4,0.4,1.8,1.5,2.3,2.5c0.2,1.4-0.2,2.7-1,3.8c-1.4,0.7-2.9,0.7-4.3,0c-0.3-0.7-0.5-1.5-0.8-2.3
	c0,0,0.2-0.2,0.3-0.3c-0.1-0.3-0.3-0.5-0.4-0.8c0.7,0,0.4-0.6,0.5-1c-0.2-1.2,1.1-1.4,1.5-2.3c-0.8-1.1-0.4-2.3-0.5-3.6
	c1.1-1.4,0.2-2.5-0.6-3.6c-1.8-0.1-3.6-1.4-4.9,0.4c-1.1,2.4-0.6,4.7-0.7,7c1.5,0.3,1.9,1.5,2.4,2.6c0,1.3,0.2,2.6-0.3,3.3
	C166.1,129.3,164.8,129,163.5,129z"/>
<path class="st0" d="M100.2,124.7c0.1,0.3,0.3,0.5,0.5,0.8c-0.4,1.4-0.9,2.7-2.2,3.5c-0.7,0-1.5,0-2.3,0c-1.3-1.2-2.5-2.4-2.2-4.3
	c1-0.7,0.8-2.1,1.9-2.6c-0.2-0.5-0.4-0.9-0.6-1.3c-1.3-0.2-2.2-1-2.6-2.2c-0.6-1.5-1-3.1-1.5-4.7c0-0.1-0.2-0.2-0.2-0.4
	c-0.5,0-1,0-1.6,0c-1.1,0.8-2.4,1.7-3.4,2.4c0,0.9,0,1.6,0,2.1c1.3,0.9,2.9,1.1,3.8,2.5c0,0.4,0,0.9,0,1.4c1.1,0.4,1.8,1.2,2.4,2.1
	c0,1,0,2,0,3c-0.3,0.5-0.6,0.9-1,1.3c-1,0.2-2.1,0.4-2.8,0.6c-0.9-0.6-1.6-1.1-2.4-1.7c0-1,0-2.1,0-3.2c0.6-0.8,1.3-1.5,2-2.5
	c-1.3-0.8-2.7-1.6-3.9-2.3c0-1.3,0-2.4,0-3.6c0.9-1.9,2.5-3.2,4.9-3.9c-0.4-0.3-0.8-0.5-1.1-0.7c-0.5-0.4-1.4-0.5-1.6-1.4
	c0-0.2-0.3-0.5-0.5-0.5c-0.9,0-1.4-0.3-1.8-1.4c-0.4-1.3-0.5-2.5,0.1-3.7c0.3-0.6,0.8-1.1,1.1-1.7c0.2-0.3,0.2-0.7,0.4-1.2
	c-0.3-0.1-0.6-0.2-0.9-0.4c-0.2-0.9-1.4-1.8-1.1-3c0.4-1.2,0.9-2.5,2.4-3.1c0.6,0,1.4,0,2.1,0c1.8,1.3,1.9,3.1,1.7,5.1
	c-2,1.8-3.5,3.9-4.1,6.8c0.3,1,2.2,0.8,2.3,2.3c1.1,0.6,2.3,1.1,3.5,1.7c1-0.4,2.1-0.8,3.1-1.1c0-0.8,0-1.6,0-2.3
	c0.6-1.5,1.5-2.6,3.2-2.9c1.4,0.3,2.5,1.2,3.1,2.9c0,2.9,0,2.9-2.2,4.3c-0.8-0.1-1.7,0.3-2.4-0.5c-0.1-0.2-0.7,0-1.1,0.2
	c-0.6,0.3-1.2,0.6-1.8,0.9c-0.2,2,0,2.9,1.6,6.2c0.6,0.3,1.2,0.6,2,1c0.3,1.2,1,2.3,2.2,3C99.8,123.2,100.1,123.8,100.2,124.7z"/>
<path class="st0" d="M59.9,125.7c0.8,1.1,0.6,2.2-0.1,3.1c-0.6,0.8-1.5,1.2-2.6,1.2c-0.7,0-1.4,0-2.1,0c-0.5-0.6-1-1.3-1.4-1.9
	c0-0.7,0-1.4,0-2.1c0.5-0.7,0.9-1.4,1.4-2.1c-0.9-1.6-0.6-3.5-0.4-5.2c0.2-1.6,1-3.2,1.5-4.8c-1.4-0.3-1.4,0.8-1.9,1.5
	c-1-0.1-2.2-0.3-3.3-0.5c-0.3-0.9-0.6-1.6-0.8-2.5c-1.3,0-2.6,0-4,0c-0.6-1.1-1.1-2.1-1.7-3.2c0.5-0.9,0.9-1.8,1.4-2.8
	c0.5-0.3,1.1-0.6,1.6-0.8c1.6,0.1,2.7,1.1,4,1.9c0.7,1.8,0,4.1,1.5,5.8c1-0.9,1.4-1.9,1.2-3.2c-0.9-0.9-1.7-1.7-2.7-2.6
	c-0.3-1.4-0.5-2.7-0.6-4.1c-0.1-0.7-0.1-1.3,0.4-2c0.3-0.4,0.5-1.1,0.5-1.7c0.1-1.1,0-2.2,0-3.3c-0.5-0.9-0.9-1.7-1.4-2.7
	c0-2.6,0-2.6,3.5-4.5c0.9,0.6,1.8,1.3,2.7,2c0,1.1,0,2,0,3c-0.8,1.3-0.8,1.3-2.3,2.4c-0.4,2.5-0.9,5.2-1.3,8.1
	c0.4,0.8,0.3,2.2,1.9,2.8c0.5-0.3,1.1-0.7,1.9-1.1c-0.2-1.5,0.4-2.7,1.8-3.8c1,0.1,2.1,0.3,3.3,0.4c0.5,1.3,0.8,2.3,1.2,3.3
	c-0.4,0.8-0.8,1.5-1.2,2.4c-1.4,1.2-3.2,0.3-5.1,0c0.5,1,1,1.9,1.5,2.8c0.3,2.1-0.3,4.2-0.9,6.3c-0.8,2.7-0.6,3.1,0.1,5.1
	C58.5,123.5,59.5,124.3,59.9,125.7z"/>
<path class="st0" d="M124.7,128.1c-1,0.3-1.8,1.2-2.9,1c-0.6-0.1-1.1-0.3-1.7-0.5c-0.3-1.1-1.3-2-1.1-3.3c0-0.2-0.1-0.4,0-0.5
	c1.4-2,2-4.6,4.1-6.2c2.6-0.4,3.5-1.2,4.6-3.7c0.5-0.3,1.1-0.5,1.7-0.8c0.2-0.6,0.5-1.4,0.8-2.1c0.3-0.7,0.8-1.3,1.3-2
	c-0.4-0.6-0.9-1.4-1.5-2.2c0.3-1-0.2-2.1,0.4-3.3c0.6-1.2,1.4-1.6,2.4-1.6c1.1,0,2.1,0.3,2.5,1.6c0.1,0.2,0.3,0.4,0.4,0.6
	c0.1,3.8-0.1,4.2-2.3,4.7c0.2,2.1-2.5,3.1-1.9,5.6c1.9,1.1,4.5,1.1,6.6,2.8c0.1,0.2,0.4,0.7,0.9,1.4c0,0.5,0,1.4,0,2.3
	c1.7,0.6,2.3,2.1,2.9,3.5c-0.2,0.9-0.4,1.9-0.5,2.7c-1.9,1.7-4.1,1.5-5.7-0.6c0-0.9,0-1.8,0-2.6c-0.2-1.2,1.1-1.4,1.6-2.5
	c-0.2-0.9-0.4-2.1-0.6-2.9c-1.8-1-3.5-1.6-5.2-1.7c0,2,0,3.8,0,5.2c0.6,1,1,1.7,1.4,2.4c0,0.5,0,1,0,1.4c0,1-0.4,2.1-1.2,2.3
	c-0.9,0.1-1.9,1.4-2.9,0.2c-0.1-0.1-0.5,0-0.7,0c-0.2-0.2-0.3-0.3-0.5-0.5c-0.2-0.6-0.4-1.1-0.5-1.7c-0.1-0.7,0-1.4,0-2.1
	c0.3-1.3,1.3-1.9,2.4-2.5c0-1,0-1.9,0-2.9c0-0.9,0.1-1.8-0.2-3c-0.5,1.9-1.9,2.5-3.1,3.3c-0.5,0.3-1.2,0.3-1.5,0.4
	c-0.7,0.6-1.3,1.1-2.1,1.9c1.5,0.3,2.2,1.2,2.6,2.4c0,0.7-0.1,1.4,0,2.1C125.3,127,124.9,127.5,124.7,128.1z"/>
<path class="st1" d="M151.3,98.7c0.1,0.3,0.2,0.5,0.3,0.7c-0.9,0.9-1.7,1.7-2.6,2.5c1,1.5,2,2.9,3.2,4.7c-0.9-0.3-1.4-0.5-1.9-0.6
	c-0.7-1-1.3-2-2.1-3.1c-0.4,0.4-0.7,0.6-1,0.9c0,0.9-0.1,1.8-0.1,3c-0.6-0.4-1-0.6-1.3-0.8c0-2.2,0-4.3,0-6.4
	c0.2-0.2,0.4-0.4,0.7-0.7c0.1,0.3,0.2,0.6,0.3,0.9c0.1-0.1,0.2-0.1,0.4-0.2c0,0.9,0,1.8,0,2.9C148.8,101.1,149.7,99.6,151.3,98.7z"
	/>
<path class="st2" d="M112.1,96.2c0.3,0.3,0.4,0.4,0.6,0.6c-0.6,1.1-1.7,1.8-2.6,2.9c0.9,1.2,1.9,2.5,3,3.8c-0.3,0-0.7,0.1-1.2,0.1
	c-0.8-1-1.6-2-2.5-3.1c-0.4,0.3-0.7,0.5-1.1,0.9c0,0.7,0,1.4,0,2.2c-0.3,0-0.5,0-0.8,0.1c0-0.3-0.1-0.5-0.1-0.8
	c-0.1-1.5,0.2-3.1-0.4-4.6c-0.3-0.6,0-1.4,0.7-1.8c0.2,0.2,0.5,0.5,0.8,0.8c0,0.8,0,1.6,0,2.7C109.7,98.6,110.9,97.5,112.1,96.2z"/>
<path class="st3" d="M69,98.9c1.1,1.5,2,2.8,3.2,4.5c-2.2-0.7-2.9-2.2-3.8-3.5c-0.3,0.4-0.7,0.8-1,1.2c-0.1-0.1-0.2-0.1-0.3-0.2
	c0,0.7,0,1.4,0,2.1c-0.3,0.1-0.5,0.1-0.7,0.2c-0.1-0.1-0.3-0.3-0.3-0.4c0-2.2,0-4.4,0-6.7c0.3-0.1,0.5-0.1,0.9-0.2
	c0,1,0.1,1.9,0.1,2.9c1.6-0.5,2.4-1.9,3.5-2.7c0.5,0,0.9,0,1.2,0C70.9,97.1,69.9,98,69,98.9z"/>
<path class="st4" d="M106.5,111.1c0-0.2,0-0.4,0-0.8c2.6,0,5.1,0,7.8,0c-0.5-0.4-0.9-0.7-1.5-1.3c2.4-0.3,4,0.4,5.4,1.8
	C116.6,111.4,110.6,111.5,106.5,111.1z"/>
<path class="st5" d="M117.9,112.8c0,0.3,0,0.5,0,0.9c-2.5,0-5,0-7.6,0c0,0.1-0.1,0.2-0.1,0.3c0.4,0.2,0.8,0.5,1.4,0.8
	c-1.9,0.7-3.1-0.2-4.4-0.7c-0.4-0.1-0.6-0.7-1.1-1.3C110.3,112.8,114.1,112.8,117.9,112.8z"/>
<path class="st6" d="M149.1,115.6c0.5,0.6,0.8,1.1,1.2,1.7c-2.1,0.7-3.2-1.6-5-1.2c0-0.4,0-0.6,0-0.9c4,0,7.9,0,11.9,0
	c-1.3,0.6-2.7,0.3-4,0.4C151.9,115.6,150.6,115.6,149.1,115.6z"/>
<path class="st7" d="M153.1,112.4c-0.4-0.2-0.8-0.5-1.3-0.8c0.4-0.3,0.7-0.5,1-0.7c1.4,0.7,3.2,0.8,4.6,2c-1.6,0.4-8.4,0.5-11.9,0
	c1.2-0.4,2.5-0.2,3.8-0.2c1.3,0,2.5,0,3.8,0C153,112.6,153,112.5,153.1,112.4z"/>
<path class="st8" d="M114.8,103.1c-0.5-0.5-0.9-0.9-1.4-1.4c1-0.1,1.2,1.2,2.3,1.5c0.3-0.4,0.7-1,1.1-1.5c0.2,0,0.4,0.1,0.6,0.2
	c0,1.1-1.1,1.3-1.5,2.2c0.5,0.8,1,1.7,1.6,2.6c-0.3,0.1-0.4,0.2-0.6,0.4c-0.5-0.7-1-1.3-1.5-1.9c-1,0.3-0.7,2-2.1,1.9
	C113.3,105.6,115.1,105,114.8,103.1z"/>
<path class="st9" d="M156.4,109.1c-0.2,0.1-0.4,0.2-0.6,0.3c-0.5-0.7-1-1.3-1.6-2.1c-0.6,0.7-1.1,1.4-1.6,2c-0.1,0-0.3-0.1-0.6-0.2
	c0-1.1,1.1-1.3,1.4-2.1c0.6-1.2-1.7-1.6-0.7-3.1c0.5,0.7,0.9,1.3,1.5,2c0.5-0.7,1.1-1.3,1.6-2c0.1,0,0.3,0.1,0.6,0.2
	c0,1.1-1.1,1.3-1.5,2.1C154.6,107.6,156,107.9,156.4,109.1z"/>
<path class="st10" d="M74.2,104.6c-0.6,0.7-1.1,1.3-1.7,2.2c0-0.7,0-1,0-1.7c0.3-0.3,0.9-0.7,1.6-1.3c-0.6-0.7-1.2-1.4-1.8-2.1
	c0.2-0.2,0.4-0.4,0.7-0.6c0.5,0.6,0.8,1.1,1.4,1.9c0.5-0.7,0.9-1.2,1.3-1.8c0.2,0.1,0.4,0.2,0.9,0.4c-0.7,0.8-1.3,1.4-1.8,2
	c0.7,1,1.4,1.9,2.2,3C75.4,106.3,75.4,104.8,74.2,104.6z"/>
<path class="st11" d="M53.7,128.1c0.5,0.6,1,1.3,1.4,1.9C53.8,129.8,53.7,129.7,53.7,128.1z"/>
<path class="st12" d="M179.9,129c-0.4,0-0.8,0-1.3,0c-0.3-0.4-0.6-0.9-1.1-1.6c-0.4,0.4-0.7,0.8-1,1.1c-0.3,0-0.6,0-1,0
	c0.7-1.2,1.2-2.4,1-3.8c0.8,0.2,1.6,0.3,2.4,0.5c0,0.6,0,1.1,0,1.7c0.4,0.4,0.8,0.9,1.3,1.3c1,0.6,2,1.5,3.2,0.4
	c0.1-0.1,0.5,0,0.7,0c0,0.3,0,0.6,0,1c-1.1-0.2-1.8,0.4-2.7,0.9C181.2,129.7,181,128.9,179.9,129z"/>
<path class="st13" d="M127.1,128.5c-0.6-0.5-1.2-0.5-1.9-0.5c-0.2,0-0.3,0-0.5,0c0.3-0.5,0.6-1,0.5-1.7c-0.1-0.7,0-1.4,0-2.1
	c0.2,0.3,0.5,0.6,0.8,1c0.3-0.2,0.7-0.4,1.1-0.5c0,0.7-0.1,1.4,0,2.1c0.1,0.6,0.3,1.1,0.5,1.7C127.4,128.5,127.2,128.5,127.1,128.5z
	"/>
<path class="st13" d="M127.6,128.5c0.2,0.2,0.3,0.3,0.5,0.5C127.9,128.9,127.7,128.7,127.6,128.5z"/>
<path class="st11" d="M188,128.5c-0.2-0.2-0.3-0.3-0.5-0.5C187.7,128.2,187.8,128.4,188,128.5z"/>
<line class="st14" x1="0" y1="141.4" x2="227.3" y2="141.4"/>
<g>
	<line class="st15" x1="16.2" y1="129.6" x2="16.2" y2="142.5"/>
	<path class="st15" d="M20.5,125.3c0,2.4-1.9,4.3-4.3,4.3s-4.3-1.9-4.3-4.3"/>
</g>
<g>
	<line class="st15" x1="40.2" y1="130.6" x2="40.2" y2="142.5"/>
	<path class="st15" d="M44.5,126.3c0,2.4-1.9,4.3-4.3,4.3c-2.4,0-4.3-1.9-4.3-4.3"/>
</g>
<g>
	<line class="st15" x1="57.2" y1="130.6" x2="57.2" y2="142.5"/>
	<path class="st15" d="M61.5,126.3c0,2.4-1.9,4.3-4.3,4.3c-2.4,0-4.3-1.9-4.3-4.3"/>
</g>
<g>
	<line class="st15" x1="74.2" y1="128.6" x2="74.2" y2="141.5"/>
	<path class="st15" d="M78.5,124.3c0,2.4-1.9,4.3-4.3,4.3s-4.3-1.9-4.3-4.3"/>
</g>
<g>
	<line class="st15" x1="89.2" y1="129.6" x2="89.2" y2="142.5"/>
	<path class="st15" d="M93.5,125.3c0,2.4-1.9,4.3-4.3,4.3s-4.3-1.9-4.3-4.3"/>
</g>
<g>
	<line class="st15" x1="97.2" y1="129.6" x2="97.2" y2="142.5"/>
	<path class="st15" d="M101.5,125.3c0,2.4-1.9,4.3-4.3,4.3s-4.3-1.9-4.3-4.3"/>
</g>
<g>
	<line class="st15" x1="108.2" y1="128.6" x2="108.2" y2="141.5"/>
	<path class="st15" d="M112.5,124.3c0,2.4-1.9,4.3-4.3,4.3s-4.3-1.9-4.3-4.3"/>
</g>
<g>
	<line class="st15" x1="121.2" y1="129.6" x2="121.2" y2="142.5"/>
	<path class="st15" d="M125.5,125.3c0,2.4-1.9,4.3-4.3,4.3s-4.3-1.9-4.3-4.3"/>
</g>
<g>
	<line class="st15" x1="130.2" y1="129.6" x2="130.2" y2="142.5"/>
	<path class="st15" d="M134.5,125.3c0,2.4-1.9,4.3-4.3,4.3c-2.4,0-4.3-1.9-4.3-4.3"/>
</g>
<g>
	<line class="st15" x1="138.2" y1="129.6" x2="138.2" y2="142.5"/>
	<path class="st15" d="M142.5,125.3c0,2.4-1.9,4.3-4.3,4.3c-2.4,0-4.3-1.9-4.3-4.3"/>
</g>
<g>
	<line class="st15" x1="152.2" y1="128.6" x2="152.2" y2="141.5"/>
	<path class="st15" d="M156.5,124.3c0,2.4-1.9,4.3-4.3,4.3c-2.4,0-4.3-1.9-4.3-4.3"/>
</g>
<g>
	<line class="st15" x1="164.2" y1="129.6" x2="164.2" y2="142.5"/>
	<path class="st15" d="M168.5,125.3c0,2.4-1.9,4.3-4.3,4.3c-2.4,0-4.3-1.9-4.3-4.3"/>
</g>
<g>
	<line class="st15" x1="173.2" y1="129.6" x2="173.2" y2="142.5"/>
	<path class="st15" d="M177.5,125.3c0,2.4-1.9,4.3-4.3,4.3c-2.4,0-4.3-1.9-4.3-4.3"/>
</g>
<g>
	<line class="st15" x1="182.2" y1="129.6" x2="182.2" y2="142.5"/>
	<path class="st15" d="M186.5,125.3c0,2.4-1.9,4.3-4.3,4.3c-2.4,0-4.3-1.9-4.3-4.3"/>
</g>
<g>
	<line class="st15" x1="190.2" y1="129.6" x2="190.2" y2="142.5"/>
	<path class="st15" d="M194.5,125.3c0,2.4-1.9,4.3-4.3,4.3c-2.4,0-4.3-1.9-4.3-4.3"/>
</g>
<g>
	<line class="st15" x1="207.5" y1="129.5" x2="207.5" y2="142.3"/>
	<path class="st15" d="M211.8,125.2c0,2.4-1.9,4.3-4.3,4.3c-2.4,0-4.3-1.9-4.3-4.3"/>
</g>
<circle class="st0" cx="10.2" cy="95.1" r="3.5"/>
<circle class="st0" cx="23.6" cy="92.7" r="3.5"/>
<circle class="st0" cx="23.6" cy="116.1" r="3.5"/>
<circle class="st0" cx="11.9" cy="116.1" r="3.5"/>
<path class="st16" d="M10.7,96.4c0.7,0.8,1.3,1.8,1.8,2.7c0.2,0.4,0.4,0.9,0.7,1.2c0.5,0.6,1.4,0.9,2.1,1.4c0.5,0.4,0.9,1.1,1.5,1.5
	c0.3,0.2,0.7,0.4,0.9,0.6c0.2,0.2,0.4,0.5,0.5,0.9c0.4,1,0.6,2,1.2,2.9c0.2,0.4,0.5,0.7,0.7,1.1c0.2,0.3,0.4,0.7,0.5,1.1
	c0.8,1.9,1.6,3.8,2.5,5.8"/>
<path class="st16" d="M23.4,93.3c0,0.9-0.1,1.9-0.1,2.8c0,1.2-0.1,2.5-0.6,3.6c-0.5,1-1.4,1.8-2.4,2.2c-0.3,0.1-0.6,0.2-0.8,0.4
	c-0.1,0.2-0.2,0.4-0.3,0.6c-0.6,1.9-1,3.8-1.1,5.8c0,0.3,0,0.7-0.3,0.9c-0.1,0.1-0.3,0.2-0.5,0.2c-1,0.3-2,0.6-3,0.5
	c-0.4,0-0.8-0.1-1,0.2c-0.2,0.2-0.2,0.5-0.2,0.7c0,0.2-0.1,0.4-0.2,0.6c-0.6,1.2-1.1,2.4-1.7,3.6"/>
<g>
	<g>
		<line class="st17" x1="32.5" y1="98" x2="37.8" y2="98"/>
		<g>
			<path d="M29.4,98c1.4,0.5,3.2,1.4,4.3,2.4L32.8,98l0.9-2.4C32.6,96.6,30.9,97.5,29.4,98z"/>
		</g>
		<g>
			<path d="M40.8,98c-1.4,0.5-3.2,1.4-4.3,2.4l0.9-2.4l-0.9-2.4C37.6,96.6,39.4,97.5,40.8,98z"/>
		</g>
	</g>
</g>
<g>
	<g>
		<line class="st17" x1="69.2" y1="109.6" x2="74.5" y2="109.6"/>
		<g>
			<path d="M66.1,109.6c1.4,0.5,3.2,1.4,4.3,2.4l-0.9-2.4l0.9-2.4C69.3,108.2,67.6,109.1,66.1,109.6z"/>
		</g>
		<g>
			<path d="M77.5,109.6c-1.4,0.5-3.2,1.4-4.3,2.4l0.9-2.4l-0.9-2.4C74.3,108.2,76.1,109.1,77.5,109.6z"/>
		</g>
	</g>
</g>
<text transform="matrix(1 0 0 1 29.0877 110.1667)" class="st18 st19">K</text>
<text transform="matrix(0.583 0 0 0.583 35.5916 114.1628)" class="st18 st19">D</text>
</svg>
