<?xml version="1.0" encoding="UTF-8" standalone="no"?>
<!DOCTYPE svg PUBLIC "-//W3C//DTD SVG 1.1//EN" "http://www.w3.org/Graphics/SVG/1.1/DTD/svg11.dtd">
<svg width="100%" height="100%" viewBox="0 0 944 693" version="1.1" xmlns="http://www.w3.org/2000/svg" xmlns:xlink="http://www.w3.org/1999/xlink" xml:space="preserve" xmlns:serif="http://www.serif.com/" style="fill-rule:evenodd;clip-rule:evenodd;stroke-linejoin:round;stroke-miterlimit:1.5;">
    <g transform="matrix(1,0,0,1,175.134,-305.427)">
        <g>
            <path d="M-32.54,320.107L-32.54,354.379L-25.004,354.379L-25.004,343.339L-20.684,338.971L-10.364,354.379L-0.908,354.379L-15.596,333.643L-2.204,320.107L-11.612,320.107L-25.004,334.315L-25.004,320.107L-32.54,320.107Z" style="fill:rgb(9,0,255);fill-rule:nonzero;"/>
            <path d="M5.772,362.639L8.374,355.307L8.43,355.307L10.949,362.639L5.772,362.639ZM6.192,350.382L-1.364,370.363L3.057,370.363L4.625,365.913L12.096,365.913L13.607,370.363L18.169,370.363L10.697,350.382L6.192,350.382Z" style="fill:rgb(9,0,255);fill-rule:nonzero;"/>
        </g>
    </g>
    <g transform="matrix(1,0,0,1,192.078,78.9255)">
        <g>
            <path d="M-32.54,320.107L-32.54,354.379L-25.004,354.379L-25.004,343.339L-20.684,338.971L-10.364,354.379L-0.908,354.379L-15.596,333.643L-2.204,320.107L-11.612,320.107L-25.004,334.315L-25.004,320.107L-32.54,320.107Z" style="fill:rgb(0,255,19);fill-rule:nonzero;"/>
            <path d="M5.772,362.639L8.374,355.307L8.43,355.307L10.949,362.639L5.772,362.639ZM6.192,350.382L-1.364,370.363L3.057,370.363L4.625,365.913L12.096,365.913L13.607,370.363L18.169,370.363L10.697,350.382L6.192,350.382Z" style="fill:rgb(0,255,19);fill-rule:nonzero;"/>
        </g>
    </g>
    <g transform="matrix(1,0,0,1,319.413,-235.437)">
        <g>
            <path d="M-33.782,320.107L-33.782,341.527L-29.072,341.527L-29.072,334.627L-26.372,331.897L-19.922,341.527L-14.012,341.527L-23.192,328.567L-14.822,320.107L-20.702,320.107L-29.072,328.987L-29.072,320.107L-33.782,320.107Z" style="fill-rule:nonzero;"/>
            <path d="M-9.96,321.235L-9.96,319.049L-11.359,319.049L-11.359,321.235L-13.335,320.466L-13.807,321.812L-11.779,322.495L-13.073,324.209L-11.901,325.066L-10.677,323.264L-9.382,325.066L-8.228,324.209L-9.522,322.495L-7.458,321.812L-7.931,320.466L-9.96,321.235Z" style="fill-rule:nonzero;"/>
            <path d="M-4.695,346.76L-7.948,351.517L-5.167,351.517L-3.278,348.666L-1.389,351.517L1.444,351.517L-1.897,346.707L1.077,342.475L-1.669,342.475L-3.243,344.836L-4.835,342.475L-7.668,342.475L-4.695,346.76Z" style="fill-rule:nonzero;"/>
            <path d="M3.514,320.107L3.514,341.527L8.224,341.527L8.224,334.627L10.924,331.897L17.374,341.527L23.284,341.527L14.104,328.567L22.474,320.107L16.594,320.107L8.224,328.987L8.224,320.107L3.514,320.107Z" style="fill:rgb(255,0,21);fill-rule:nonzero;"/>
            <path d="M27.459,346.69L29.085,342.107L29.12,342.107L30.695,346.69L27.459,346.69ZM27.721,339.029L22.999,351.517L25.762,351.517L26.742,348.736L31.412,348.736L32.356,351.517L35.207,351.517L30.537,339.029L27.721,339.029Z" style="fill:rgb(255,0,21);fill-rule:nonzero;"/>
        </g>
    </g>
    <g transform="matrix(1,0,0,1,529.268,159.01)">
        <g>
            <path d="M-33.782,320.107L-33.782,341.527L-29.072,341.527L-29.072,334.627L-26.372,331.897L-19.922,341.527L-14.012,341.527L-23.192,328.567L-14.822,320.107L-20.702,320.107L-29.072,328.987L-29.072,320.107L-33.782,320.107Z" style="fill-rule:nonzero;"/>
            <path d="M-9.96,321.235L-9.96,319.049L-11.359,319.049L-11.359,321.235L-13.335,320.466L-13.807,321.812L-11.779,322.495L-13.073,324.209L-11.901,325.066L-10.677,323.264L-9.382,325.066L-8.228,324.209L-9.522,322.495L-7.458,321.812L-7.931,320.466L-9.96,321.235Z" style="fill-rule:nonzero;"/>
            <path d="M-4.695,346.76L-7.948,351.517L-5.167,351.517L-3.278,348.666L-1.389,351.517L1.444,351.517L-1.897,346.707L1.077,342.475L-1.669,342.475L-3.243,344.836L-4.835,342.475L-7.668,342.475L-4.695,346.76Z" style="fill-rule:nonzero;"/>
            <path d="M3.514,320.107L3.514,341.527L8.224,341.527L8.224,334.627L10.924,331.897L17.374,341.527L23.284,341.527L14.104,328.567L22.474,320.107L16.594,320.107L8.224,328.987L8.224,320.107L3.514,320.107Z" style="fill:rgb(255,0,21);fill-rule:nonzero;"/>
            <path d="M27.459,346.69L29.085,342.107L29.12,342.107L30.695,346.69L27.459,346.69ZM27.721,339.029L22.999,351.517L25.762,351.517L26.742,348.736L31.412,348.736L32.356,351.517L35.207,351.517L30.537,339.029L27.721,339.029Z" style="fill:rgb(255,0,21);fill-rule:nonzero;"/>
        </g>
    </g>
    <g transform="matrix(1,0,0,1,491.879,-225.885)">
        <g>
            <path d="M-33.782,320.107L-33.782,341.527L-29.072,341.527L-29.072,334.627L-26.372,331.897L-19.922,341.527L-14.012,341.527L-23.192,328.567L-14.822,320.107L-20.702,320.107L-29.072,328.987L-29.072,320.107L-33.782,320.107Z" style="fill-rule:nonzero;"/>
            <path d="M-9.96,321.235L-9.96,319.049L-11.359,319.049L-11.359,321.235L-13.335,320.466L-13.807,321.812L-11.779,322.495L-13.073,324.209L-11.901,325.066L-10.677,323.264L-9.382,325.066L-8.228,324.209L-9.522,322.495L-7.458,321.812L-7.931,320.466L-9.96,321.235Z" style="fill-rule:nonzero;"/>
            <path d="M-4.695,346.76L-7.948,351.517L-5.167,351.517L-3.278,348.666L-1.389,351.517L1.444,351.517L-1.897,346.707L1.077,342.475L-1.669,342.475L-3.243,344.836L-4.835,342.475L-7.668,342.475L-4.695,346.76Z" style="fill-rule:nonzero;"/>
            <path d="M3.514,320.107L3.514,341.527L8.224,341.527L8.224,334.627L10.924,331.897L17.374,341.527L23.284,341.527L14.104,328.567L22.474,320.107L16.594,320.107L8.224,328.987L8.224,320.107L3.514,320.107Z" style="fill:rgb(102,255,102);fill-rule:nonzero;"/>
            <path d="M27.459,346.69L29.085,342.107L29.12,342.107L30.695,346.69L27.459,346.69ZM27.721,339.029L22.999,351.517L25.762,351.517L26.742,348.736L31.412,348.736L32.356,351.517L35.207,351.517L30.537,339.029L27.721,339.029Z" style="fill:rgb(102,255,102);fill-rule:nonzero;"/>
        </g>
    </g>
    <g transform="matrix(1,0,0,1,655.545,-216.529)">
        <g>
            <path d="M-33.782,320.107L-33.782,341.527L-29.072,341.527L-29.072,334.627L-26.372,331.897L-19.922,341.527L-14.012,341.527L-23.192,328.567L-14.822,320.107L-20.702,320.107L-29.072,328.987L-29.072,320.107L-33.782,320.107Z" style="fill-rule:nonzero;"/>
            <path d="M-9.96,321.235L-9.96,319.049L-11.359,319.049L-11.359,321.235L-13.335,320.466L-13.807,321.812L-11.779,322.495L-13.073,324.209L-11.901,325.066L-10.677,323.264L-9.382,325.066L-8.228,324.209L-9.522,322.495L-7.458,321.812L-7.931,320.466L-9.96,321.235Z" style="fill-rule:nonzero;"/>
            <path d="M-4.695,346.76L-7.948,351.517L-5.167,351.517L-3.278,348.666L-1.389,351.517L1.444,351.517L-1.897,346.707L1.077,342.475L-1.669,342.475L-3.243,344.836L-4.835,342.475L-7.668,342.475L-4.695,346.76Z" style="fill-rule:nonzero;"/>
            <path d="M3.514,320.107L3.514,341.527L8.224,341.527L8.224,334.627L10.924,331.897L17.374,341.527L23.284,341.527L14.104,328.567L22.474,320.107L16.594,320.107L8.224,328.987L8.224,320.107L3.514,320.107Z" style="fill:rgb(102,255,102);fill-rule:nonzero;"/>
            <path d="M27.459,346.69L29.085,342.107L29.12,342.107L30.695,346.69L27.459,346.69ZM27.721,339.029L22.999,351.517L25.762,351.517L26.742,348.736L31.412,348.736L32.356,351.517L35.207,351.517L30.537,339.029L27.721,339.029Z" style="fill:rgb(102,255,102);fill-rule:nonzero;"/>
        </g>
    </g>
    <g transform="matrix(1,0,0,1,347.278,158.209)">
        <g>
            <path d="M-33.782,320.107L-33.782,341.527L-29.072,341.527L-29.072,334.627L-26.372,331.897L-19.922,341.527L-14.012,341.527L-23.192,328.567L-14.822,320.107L-20.702,320.107L-29.072,328.987L-29.072,320.107L-33.782,320.107Z" style="fill-rule:nonzero;"/>
            <path d="M-9.96,321.235L-9.96,319.049L-11.359,319.049L-11.359,321.235L-13.335,320.466L-13.807,321.812L-11.779,322.495L-13.073,324.209L-11.901,325.066L-10.677,323.264L-9.382,325.066L-8.228,324.209L-9.522,322.495L-7.458,321.812L-7.931,320.466L-9.96,321.235Z" style="fill-rule:nonzero;"/>
            <path d="M-4.695,346.76L-7.948,351.517L-5.167,351.517L-3.278,348.666L-1.389,351.517L1.444,351.517L-1.897,346.707L1.077,342.475L-1.669,342.475L-3.243,344.836L-4.835,342.475L-7.668,342.475L-4.695,346.76Z" style="fill-rule:nonzero;"/>
            <path d="M3.514,320.107L3.514,341.527L8.224,341.527L8.224,334.627L10.924,331.897L17.374,341.527L23.284,341.527L14.104,328.567L22.474,320.107L16.594,320.107L8.224,328.987L8.224,320.107L3.514,320.107Z" style="fill:rgb(1,0,255);fill-rule:nonzero;"/>
            <path d="M27.459,346.69L29.085,342.107L29.12,342.107L30.695,346.69L27.459,346.69ZM27.721,339.029L22.999,351.517L25.762,351.517L26.742,348.736L31.412,348.736L32.356,351.517L35.207,351.517L30.537,339.029L27.721,339.029Z" style="fill:rgb(1,0,255);fill-rule:nonzero;"/>
        </g>
    </g>
    <g transform="matrix(1,0,0,1,704.401,167.012)">
        <g>
            <path d="M-33.782,320.107L-33.782,341.527L-29.072,341.527L-29.072,334.627L-26.372,331.897L-19.922,341.527L-14.012,341.527L-23.192,328.567L-14.822,320.107L-20.702,320.107L-29.072,328.987L-29.072,320.107L-33.782,320.107Z" style="fill-rule:nonzero;"/>
            <path d="M-9.96,321.235L-9.96,319.049L-11.359,319.049L-11.359,321.235L-13.335,320.466L-13.807,321.812L-11.779,322.495L-13.073,324.209L-11.901,325.066L-10.677,323.264L-9.382,325.066L-8.228,324.209L-9.522,322.495L-7.458,321.812L-7.931,320.466L-9.96,321.235Z" style="fill-rule:nonzero;"/>
            <path d="M-4.695,346.76L-7.948,351.517L-5.167,351.517L-3.278,348.666L-1.389,351.517L1.444,351.517L-1.897,346.707L1.077,342.475L-1.669,342.475L-3.243,344.836L-4.835,342.475L-7.668,342.475L-4.695,346.76Z" style="fill-rule:nonzero;"/>
            <path d="M3.514,320.107L3.514,341.527L8.224,341.527L8.224,334.627L10.924,331.897L17.374,341.527L23.284,341.527L14.104,328.567L22.474,320.107L16.594,320.107L8.224,328.987L8.224,320.107L3.514,320.107Z" style="fill:rgb(1,0,255);fill-rule:nonzero;"/>
            <path d="M27.459,346.69L29.085,342.107L29.12,342.107L30.695,346.69L27.459,346.69ZM27.721,339.029L22.999,351.517L25.762,351.517L26.742,348.736L31.412,348.736L32.356,351.517L35.207,351.517L30.537,339.029L27.721,339.029Z" style="fill:rgb(1,0,255);fill-rule:nonzero;"/>
        </g>
    </g>
    <g transform="matrix(0.931207,0,0,0.957975,1.0017,0.546044)">
        <ellipse cx="64.894" cy="93.321" rx="15.312" ry="16.542"/>
    </g>
    <g>
        <g transform="matrix(0.931207,0,0,0.957975,184.166,-8.01633)">
            <ellipse cx="64.894" cy="93.321" rx="15.312" ry="16.542"/>
        </g>
        <g transform="matrix(0.931207,0,0,0.957975,161.095,59.8731)">
            <ellipse cx="64.894" cy="93.321" rx="15.312" ry="16.542"/>
        </g>
        <g transform="matrix(0.931207,0,0,0.957975,211.101,47.8004)">
            <ellipse cx="64.894" cy="93.321" rx="15.312" ry="16.542"/>
        </g>
        <g transform="matrix(0.931207,0,0,0.957975,200.239,132.212)">
            <ellipse cx="64.894" cy="93.321" rx="15.312" ry="16.542"/>
        </g>
        <path d="M242.092,93.189C242.092,101.195 242.698,107.502 240.27,115.195C238.761,119.977 236.062,127.075 237.95,132.533C238.685,134.656 239.548,139.141 241.08,140.655C244.249,143.786 247.753,145.839 249.507,149.304C250.63,151.525 254.563,152.217 255.909,154.877C261.11,165.154 257.589,184.357 254.012,195.691C252.09,201.779 258.014,208.839 258.014,214.102" style="fill:none;stroke:black;stroke-width:7.5px;"/>
        <path d="M264.385,140.112C246.524,140.112 256.387,167.237 243.445,171.321C235.009,173.983 238.098,165.649 235.964,161.328C233.287,155.91 227.17,153.776 221.295,153.776" style="fill:none;stroke:black;stroke-width:7.5px;"/>
    </g>
    <g transform="matrix(1,0,0,1,24.012,387.907)">
        <g transform="matrix(0.931207,0,0,0.957975,184.166,-8.01633)">
            <ellipse cx="64.894" cy="93.321" rx="15.312" ry="16.542"/>
        </g>
        <g transform="matrix(0.931207,0,0,0.957975,161.095,59.8731)">
            <ellipse cx="64.894" cy="93.321" rx="15.312" ry="16.542"/>
        </g>
        <g transform="matrix(0.931207,0,0,0.957975,211.101,47.8004)">
            <ellipse cx="64.894" cy="93.321" rx="15.312" ry="16.542"/>
        </g>
        <g transform="matrix(0.931207,0,0,0.957975,200.239,132.212)">
            <ellipse cx="64.894" cy="93.321" rx="15.312" ry="16.542"/>
        </g>
        <path d="M242.092,93.189C242.092,101.195 242.698,107.502 240.27,115.195C238.761,119.977 236.062,127.075 237.95,132.533C238.685,134.656 239.548,139.141 241.08,140.655C244.249,143.786 247.753,145.839 249.507,149.304C250.63,151.525 254.563,152.217 255.909,154.877C261.11,165.154 257.589,184.357 254.012,195.691C252.09,201.779 258.014,208.839 258.014,214.102" style="fill:none;stroke:black;stroke-width:7.5px;"/>
        <path d="M264.385,140.112C246.524,140.112 256.387,167.237 243.445,171.321C235.009,173.983 238.098,165.649 235.964,161.328C233.287,155.91 227.17,153.776 221.295,153.776" style="fill:none;stroke:black;stroke-width:7.5px;"/>
    </g>
    <g>
        <g transform="matrix(0.931207,0,0,0.957975,324.699,13.4041)">
            <ellipse cx="64.894" cy="93.321" rx="15.312" ry="16.542"/>
        </g>
        <g transform="matrix(0.931207,0,0,0.957975,372.603,54.9679)">
            <ellipse cx="64.894" cy="93.321" rx="15.312" ry="16.542"/>
        </g>
        <g transform="matrix(0.931207,0,0,0.957975,333.593,128.016)">
            <ellipse cx="64.894" cy="93.321" rx="15.312" ry="16.542"/>
        </g>
        <g transform="matrix(0.931207,0,0,0.957975,370.472,131.54)">
            <ellipse cx="64.894" cy="93.321" rx="15.312" ry="16.542"/>
        </g>
        <path d="M386.227,108.428C386.227,111.39 384.376,123.751 383.104,126.296C381.683,129.138 375.072,134.297 378.241,140.56C383.327,150.612 399.542,153.871 407.985,162.213C413.269,167.434 409.903,174.582 413.171,181.04C414.265,183.201 421.792,194.658 423.573,195.538C425.896,196.685 432.317,202.317 432.818,204.919C433.264,207.231 432.243,220.898 429.108,220.898" style="fill:none;stroke:black;stroke-width:7.5px;"/>
        <path d="M434.749,146.813C429.183,146.813 422.754,153.917 418.076,156.256C405.754,162.417 385.595,166.206 379.097,179.203C377.151,183.094 378.545,189.329 381.379,192.13C382.723,193.457 387.398,193.28 389.243,194.192C390.652,194.888 393.454,198.934 394.476,200.469C396.325,203.249 394.558,210.057 393.85,212.887C393.591,213.923 393.65,215.457 393.65,216.526C393.65,216.97 393.65,218.359 393.65,218.186" style="fill:none;stroke:black;stroke-width:7.5px;"/>
    </g>
    <g transform="matrix(1,0,0,1,31.2375,389.976)">
        <g transform="matrix(0.931207,0,0,0.957975,324.699,13.4041)">
            <ellipse cx="64.894" cy="93.321" rx="15.312" ry="16.542"/>
        </g>
        <g transform="matrix(0.931207,0,0,0.957975,372.603,54.9679)">
            <ellipse cx="64.894" cy="93.321" rx="15.312" ry="16.542"/>
        </g>
        <g transform="matrix(0.931207,0,0,0.957975,333.593,128.016)">
            <ellipse cx="64.894" cy="93.321" rx="15.312" ry="16.542"/>
        </g>
        <g transform="matrix(0.931207,0,0,0.957975,370.472,131.54)">
            <ellipse cx="64.894" cy="93.321" rx="15.312" ry="16.542"/>
        </g>
        <path d="M386.227,108.428C386.227,111.39 384.376,123.751 383.104,126.296C381.683,129.138 375.072,134.297 378.241,140.56C383.327,150.612 399.542,153.871 407.985,162.213C413.269,167.434 409.903,174.582 413.171,181.04C414.265,183.201 421.792,194.658 423.573,195.538C425.896,196.685 432.317,202.317 432.818,204.919C433.264,207.231 432.243,220.898 429.108,220.898" style="fill:none;stroke:black;stroke-width:7.5px;"/>
        <path d="M434.749,146.813C429.183,146.813 422.754,153.917 418.076,156.256C405.754,162.417 385.595,166.206 379.097,179.203C377.151,183.094 378.545,189.329 381.379,192.13C382.723,193.457 387.398,193.28 389.243,194.192C390.652,194.888 393.454,198.934 394.476,200.469C396.325,203.249 394.558,210.057 393.85,212.887C393.591,213.923 393.65,215.457 393.65,216.526C393.65,216.97 393.65,218.359 393.65,218.186" style="fill:none;stroke:black;stroke-width:7.5px;"/>
    </g>
    <g transform="matrix(1,0,0,1,-2,2)">
        <g transform="matrix(0.931207,0,0,0.957975,522.192,47.1575)">
            <ellipse cx="64.894" cy="93.321" rx="15.312" ry="16.542"/>
        </g>
        <g transform="matrix(0.931207,0,0,0.957975,476.555,127.1)">
            <ellipse cx="64.894" cy="93.321" rx="15.312" ry="16.542"/>
        </g>
        <g transform="matrix(0.931207,0,0,0.957975,513.216,129.14)">
            <ellipse cx="64.894" cy="93.321" rx="15.312" ry="16.542"/>
        </g>
        <g transform="matrix(0.931207,0,0,0.957975,548.511,127.943)">
            <ellipse cx="64.894" cy="93.321" rx="15.312" ry="16.542"/>
        </g>
        <path d="M581.379,147.106C581.379,153.818 579.151,153.623 576.499,158.928C575.175,161.575 576.029,165.421 574.606,168.269C573.014,171.452 567.699,175.092 564.88,176.502C562.127,177.878 563.689,182.461 561.325,183.643C556.977,185.817 551.44,189.38 548.291,190.955C544.738,192.732 537.061,197.176 535.6,200.098C534.218,202.862 536.168,214.411 537.173,213.074" style="fill:none;stroke:black;stroke-width:7.5px;"/>
        <path d="M573.307,212.738C573.307,203.188 574.568,193.66 574.568,184.395C574.568,181.602 573.796,179.79 571.889,177.861C570.957,176.917 567.578,175.229 568.904,175.229C574.662,175.229 574.123,181.391 578.252,182.684C582.515,184.019 587.045,185.269 591.179,186.673C592.587,187.151 594.793,186.019 596.115,186.673C605.579,191.348 608.699,200.421 608.699,210.215" style="fill:none;stroke:black;stroke-width:7.5px;"/>
    </g>
    <g transform="matrix(1,0,0,1,37.1748,392.963)">
        <g transform="matrix(0.931207,0,0,0.957975,522.192,47.1575)">
            <ellipse cx="64.894" cy="93.321" rx="15.312" ry="16.542"/>
        </g>
        <g transform="matrix(0.931207,0,0,0.957975,476.555,127.1)">
            <ellipse cx="64.894" cy="93.321" rx="15.312" ry="16.542"/>
        </g>
        <g transform="matrix(0.931207,0,0,0.957975,513.216,129.14)">
            <ellipse cx="64.894" cy="93.321" rx="15.312" ry="16.542"/>
        </g>
        <g transform="matrix(0.931207,0,0,0.957975,548.511,127.943)">
            <ellipse cx="64.894" cy="93.321" rx="15.312" ry="16.542"/>
        </g>
        <path d="M581.379,147.106C581.379,153.818 579.151,153.623 576.499,158.928C575.175,161.575 576.029,165.421 574.606,168.269C573.014,171.452 567.699,175.092 564.88,176.502C562.127,177.878 563.689,182.461 561.325,183.643C556.977,185.817 551.44,189.38 548.291,190.955C544.738,192.732 537.061,197.176 535.6,200.098C534.218,202.862 536.168,214.411 537.173,213.074" style="fill:none;stroke:black;stroke-width:7.5px;"/>
        <path d="M573.307,212.738C573.307,203.188 574.568,193.66 574.568,184.395C574.568,181.602 573.796,179.79 571.889,177.861C570.957,176.917 567.578,175.229 568.904,175.229C574.662,175.229 574.123,181.391 578.252,182.684C582.515,184.019 587.045,185.269 591.179,186.673C592.587,187.151 594.793,186.019 596.115,186.673C605.579,191.348 608.699,200.421 608.699,210.215" style="fill:none;stroke:black;stroke-width:7.5px;"/>
    </g>
    <g>
        <g transform="matrix(0.931207,0,0,0.957975,661.21,129.055)">
            <ellipse cx="64.894" cy="93.321" rx="15.312" ry="16.542"/>
        </g>
        <g transform="matrix(0.931207,0,0,0.957975,694.89,130.003)">
            <ellipse cx="64.894" cy="93.321" rx="15.312" ry="16.542"/>
        </g>
        <g transform="matrix(0.931207,0,0,0.957975,731.346,128.657)">
            <ellipse cx="64.894" cy="93.321" rx="15.312" ry="16.542"/>
        </g>
        <g transform="matrix(0.931207,0,0,0.957975,768.254,130.966)">
            <ellipse cx="64.894" cy="93.321" rx="15.312" ry="16.542"/>
        </g>
        <path d="M718.747,210.282C718.747,200.58 717.097,191.062 720.36,181.561C721.439,178.418 720.137,173.61 722.711,171.036C723.112,170.635 725.021,171.247 725.534,171.036C728.705,169.732 733.316,170.335 736.323,168.832C739.558,167.214 745.604,165.104 749.248,167.483C751.446,168.919 753.91,172.927 755.003,175.087C756.324,177.698 755.028,182.581 758.429,184.261C761.126,185.594 765.347,183.357 767.956,184.646C773.779,187.523 778.908,189.943 784.903,192.806C791.159,195.793 793.797,208.517 793.797,214.611" style="fill:none;stroke:black;stroke-width:7.5px;"/>
        <path d="M755.581,216.7C755.581,209.481 754.186,201.767 755.913,194.899C756.452,192.755 755.379,189.14 757.127,187.391C763.498,181.021 776.273,179.718 784.501,178.342C787.334,177.868 790.863,175.706 793.388,174.502C798.489,172.07 805.204,172.498 810.768,172.498C813.972,172.498 817.785,171.854 820.514,170.489C821.203,170.144 821.949,168.595 822.757,168.994C825.534,170.366 826.066,176.206 826.681,178.637C828.637,186.377 828.907,193.88 828.907,202.149C828.907,203.89 827.819,211.313 829.281,212.758" style="fill:none;stroke:black;stroke-width:7.5px;"/>
    </g>
    <g transform="matrix(1,0,0,1,47.5803,391.22)">
        <g transform="matrix(0.931207,0,0,0.957975,661.21,129.055)">
            <ellipse cx="64.894" cy="93.321" rx="15.312" ry="16.542"/>
        </g>
        <g transform="matrix(0.931207,0,0,0.957975,694.89,130.003)">
            <ellipse cx="64.894" cy="93.321" rx="15.312" ry="16.542"/>
        </g>
        <g transform="matrix(0.931207,0,0,0.957975,731.346,128.657)">
            <ellipse cx="64.894" cy="93.321" rx="15.312" ry="16.542"/>
        </g>
        <g transform="matrix(0.931207,0,0,0.957975,768.254,130.966)">
            <ellipse cx="64.894" cy="93.321" rx="15.312" ry="16.542"/>
        </g>
        <path d="M718.747,210.282C718.747,200.58 717.097,191.062 720.36,181.561C721.439,178.418 720.137,173.61 722.711,171.036C723.112,170.635 725.021,171.247 725.534,171.036C728.705,169.732 733.316,170.335 736.323,168.832C739.558,167.214 745.604,165.104 749.248,167.483C751.446,168.919 753.91,172.927 755.003,175.087C756.324,177.698 755.028,182.581 758.429,184.261C761.126,185.594 765.347,183.357 767.956,184.646C773.779,187.523 778.908,189.943 784.903,192.806C791.159,195.793 793.797,208.517 793.797,214.611" style="fill:none;stroke:black;stroke-width:7.5px;"/>
        <path d="M755.581,216.7C755.581,209.481 754.186,201.767 755.913,194.899C756.452,192.755 755.379,189.14 757.127,187.391C763.498,181.021 776.273,179.718 784.501,178.342C787.334,177.868 790.863,175.706 793.388,174.502C798.489,172.07 805.204,172.498 810.768,172.498C813.972,172.498 817.785,171.854 820.514,170.489C821.203,170.144 821.949,168.595 822.757,168.994C825.534,170.366 826.066,176.206 826.681,178.637C828.637,186.377 828.907,193.88 828.907,202.149C828.907,203.89 827.819,211.313 829.281,212.758" style="fill:none;stroke:black;stroke-width:7.5px;"/>
    </g>
    <g transform="matrix(0.931207,0,0,0.957975,56.5025,-10.8393)">
        <ellipse cx="64.894" cy="93.321" rx="15.312" ry="16.542"/>
    </g>
    <g transform="matrix(0.931207,0,0,0.957975,56.2801,89.0172)">
        <ellipse cx="64.894" cy="93.321" rx="15.312" ry="16.542"/>
    </g>
    <g transform="matrix(0.931207,0,0,0.957975,6.7411,89.4043)">
        <ellipse cx="64.894" cy="93.321" rx="15.312" ry="16.542"/>
    </g>
    <path d="M61.388,89.47C61.388,94.666 67.647,97.144 69.586,100.975C71.775,105.301 71.83,110.852 74.6,115.015C76.507,117.881 81.889,118.148 84.615,119.495C89.774,122.044 90.889,126.482 92.89,131.481C93.91,134.028 96.356,135.902 97.435,138.597C99.168,142.926 99.341,147.539 101.391,151.589C103.414,155.588 108.659,156.937 110.329,161.108C111.565,164.195 113.743,167.066 114.68,169.999C114.957,170.868 116.377,174.244 116.377,174.122" style="fill:none;stroke:black;stroke-width:6px;stroke-linecap:round;"/>
    <path d="M116.56,78.886C116.56,94.692 117.94,101.558 109.653,114.156C109.186,114.865 109.157,116.592 108.698,117.05C106.054,119.695 100.3,121.035 97.413,123.922C96.104,125.231 97.8,129.717 97.228,131.528C96.196,134.799 97.762,138.931 96.643,142.201C95.853,144.51 91.84,145.397 90.666,147.745C90.406,148.264 90.962,149.906 90.297,150.239C88.408,151.183 84.614,150.101 82.459,150.639C78.353,151.666 75.928,153.545 72.622,155.72C71.708,156.322 72.418,159.072 72.253,160.065C71.604,163.972 71.037,178.56 66.073,178.56" style="fill:none;stroke:black;stroke-width:6px;stroke-linecap:round;"/>
    <g transform="matrix(0.931207,0,0,0.957975,14.3402,382.118)">
        <ellipse cx="64.894" cy="93.321" rx="15.312" ry="16.542"/>
    </g>
    <g transform="matrix(0.931207,0,0,0.957975,69.841,370.732)">
        <ellipse cx="64.894" cy="93.321" rx="15.312" ry="16.542"/>
    </g>
    <g transform="matrix(0.931207,0,0,0.957975,69.6186,470.589)">
        <ellipse cx="64.894" cy="93.321" rx="15.312" ry="16.542"/>
    </g>
    <g transform="matrix(0.931207,0,0,0.957975,20.0796,470.976)">
        <ellipse cx="64.894" cy="93.321" rx="15.312" ry="16.542"/>
    </g>
    <g transform="matrix(1,0,0,1,13.3385,381.572)">
        <path d="M61.388,89.47C61.388,94.666 67.647,97.144 69.586,100.975C71.775,105.301 71.83,110.852 74.6,115.015C76.507,117.881 81.889,118.148 84.615,119.495C89.774,122.044 90.889,126.482 92.89,131.481C93.91,134.028 96.356,135.902 97.435,138.597C99.168,142.926 99.341,147.539 101.391,151.589C103.414,155.588 108.659,156.937 110.329,161.108C111.565,164.195 113.743,167.066 114.68,169.999C114.957,170.868 116.377,174.244 116.377,174.122" style="fill:none;stroke:black;stroke-width:6px;stroke-linecap:round;"/>
    </g>
    <g transform="matrix(1,0,0,1,13.3385,381.572)">
        <path d="M116.56,78.886C116.56,94.692 117.94,101.558 109.653,114.156C109.186,114.865 109.157,116.592 108.698,117.05C106.054,119.695 100.3,121.035 97.413,123.922C96.104,125.231 97.8,129.717 97.228,131.528C96.196,134.799 97.762,138.931 96.643,142.201C95.853,144.51 91.84,145.397 90.666,147.745C90.406,148.264 90.962,149.906 90.297,150.239C88.408,151.183 84.614,150.101 82.459,150.639C78.353,151.666 75.928,153.545 72.622,155.72C71.708,156.322 72.418,159.072 72.253,160.065C71.604,163.972 71.037,178.56 66.073,178.56" style="fill:none;stroke:black;stroke-width:6px;stroke-linecap:round;"/>
    </g>
    <g transform="matrix(1,0,0,1,18.0486,-297.937)">
        <path d="M66.977,337.167L66.977,331.982L56.43,331.982L56.43,327.657L67.61,311.292L71.758,311.292L71.758,327.64L74.958,327.64L74.958,331.982L71.758,331.982L71.758,337.167L66.977,337.167ZM66.977,327.64L66.977,318.833L61.053,327.64L66.977,327.64Z" style="fill-rule:nonzero;"/>
        <path d="M81.543,334.07C82.998,334.07 84.136,334.589 84.956,335.628C85.933,336.857 86.421,338.897 86.421,341.746C86.421,344.588 85.929,346.631 84.946,347.874C84.133,348.899 82.998,349.411 81.543,349.411C80.081,349.411 78.903,348.849 78.008,347.725C77.113,346.602 76.665,344.598 76.665,341.715C76.665,338.887 77.157,336.851 78.141,335.607C78.954,334.582 80.088,334.07 81.543,334.07ZM81.543,336.458C81.195,336.458 80.884,336.569 80.611,336.791C80.337,337.013 80.126,337.411 79.975,337.985C79.777,338.729 79.678,339.983 79.678,341.746C79.678,343.508 79.767,344.719 79.945,345.379C80.122,346.038 80.346,346.477 80.616,346.696C80.886,346.914 81.195,347.023 81.543,347.023C81.892,347.023 82.203,346.912 82.476,346.69C82.749,346.468 82.961,346.07 83.111,345.497C83.309,344.759 83.408,343.508 83.408,341.746C83.408,339.983 83.32,338.772 83.142,338.113C82.964,337.454 82.741,337.013 82.471,336.791C82.201,336.569 81.892,336.458 81.543,336.458Z" style="fill-rule:nonzero;"/>
    </g>
    <g transform="matrix(1,0,0,1,172.683,-294.85)">
        <path d="M66.977,337.167L66.977,331.982L56.43,331.982L56.43,327.657L67.61,311.292L71.758,311.292L71.758,327.64L74.958,327.64L74.958,331.982L71.758,331.982L71.758,337.167L66.977,337.167ZM66.977,327.64L66.977,318.833L61.053,327.64L66.977,327.64Z" style="fill-rule:nonzero;"/>
        <path d="M84.044,349.155L81.164,349.155L81.164,338.302C80.112,339.286 78.872,340.014 77.444,340.485L77.444,337.872C78.196,337.626 79.012,337.16 79.893,336.473C80.775,335.787 81.379,334.985 81.707,334.07L84.044,334.07L84.044,349.155Z" style="fill-rule:nonzero;"/>
    </g>
    <g transform="matrix(1,0,0,1,334.761,-266.578)">
        <path d="M66.977,337.167L66.977,331.982L56.43,331.982L56.43,327.657L67.61,311.292L71.758,311.292L71.758,327.64L74.958,327.64L74.958,331.982L71.758,331.982L71.758,337.167L66.977,337.167ZM66.977,327.64L66.977,318.833L61.053,327.64L66.977,327.64Z" style="fill-rule:nonzero;"/>
        <path d="M86.401,346.48L86.401,349.155L76.306,349.155C76.416,348.144 76.744,347.186 77.29,346.281C77.837,345.375 78.916,344.175 80.529,342.678C81.827,341.469 82.623,340.649 82.916,340.219C83.313,339.624 83.511,339.037 83.511,338.456C83.511,337.814 83.338,337.32 82.993,336.975C82.648,336.63 82.172,336.458 81.564,336.458C80.963,336.458 80.484,336.639 80.129,337.001C79.774,337.363 79.569,337.964 79.514,338.805L76.645,338.518C76.815,336.933 77.352,335.795 78.254,335.105C79.155,334.415 80.283,334.07 81.635,334.07C83.118,334.07 84.283,334.47 85.13,335.269C85.977,336.068 86.401,337.062 86.401,338.251C86.401,338.928 86.28,339.571 86.037,340.183C85.794,340.794 85.41,341.435 84.884,342.104C84.536,342.549 83.907,343.187 82.998,344.021C82.09,344.854 81.514,345.408 81.272,345.681C81.029,345.954 80.833,346.221 80.682,346.48L86.401,346.48Z" style="fill-rule:nonzero;"/>
    </g>
    <g transform="matrix(1,0,0,1,511.191,-244.897)">
        <path d="M66.977,337.167L66.977,331.982L56.43,331.982L56.43,327.657L67.61,311.292L71.758,311.292L71.758,327.64L74.958,327.64L74.958,331.982L71.758,331.982L71.758,337.167L66.977,337.167ZM66.977,327.64L66.977,318.833L61.053,327.64L66.977,327.64Z" style="fill-rule:nonzero;"/>
        <path d="M76.573,345.169L79.36,344.83C79.449,345.541 79.688,346.084 80.078,346.46C80.467,346.836 80.939,347.023 81.492,347.023C82.086,347.023 82.587,346.798 82.993,346.347C83.4,345.896 83.603,345.288 83.603,344.523C83.603,343.799 83.408,343.225 83.019,342.801C82.63,342.378 82.155,342.166 81.594,342.166C81.226,342.166 80.785,342.238 80.272,342.381L80.59,340.034C81.369,340.055 81.963,339.886 82.373,339.527C82.783,339.168 82.988,338.692 82.988,338.097C82.988,337.592 82.838,337.189 82.537,336.888C82.237,336.588 81.837,336.437 81.338,336.437C80.846,336.437 80.426,336.608 80.078,336.95C79.729,337.291 79.518,337.79 79.442,338.446L76.788,337.995C76.973,337.086 77.251,336.36 77.623,335.817C77.996,335.274 78.515,334.847 79.181,334.536C79.847,334.225 80.594,334.07 81.42,334.07C82.834,334.07 83.969,334.521 84.823,335.423C85.526,336.161 85.878,336.994 85.878,337.923C85.878,339.242 85.157,340.294 83.716,341.08C84.577,341.264 85.265,341.677 85.781,342.32C86.297,342.962 86.555,343.737 86.555,344.646C86.555,345.965 86.073,347.088 85.11,348.018C84.146,348.947 82.947,349.411 81.512,349.411C80.153,349.411 79.026,349.02 78.131,348.238C77.236,347.456 76.716,346.433 76.573,345.169Z" style="fill-rule:nonzero;"/>
    </g>
    <g transform="matrix(1,0,0,1,700.863,-201.843)">
        <path d="M66.977,337.167L66.977,331.982L56.43,331.982L56.43,327.657L67.61,311.292L71.758,311.292L71.758,327.64L74.958,327.64L74.958,331.982L71.758,331.982L71.758,337.167L66.977,337.167ZM66.977,327.64L66.977,318.833L61.053,327.64L66.977,327.64Z" style="fill-rule:nonzero;"/>
        <path d="M82.322,349.155L82.322,346.132L76.173,346.132L76.173,343.611L82.691,334.07L85.11,334.07L85.11,343.601L86.975,343.601L86.975,346.132L85.11,346.132L85.11,349.155L82.322,349.155ZM82.322,343.601L82.322,338.466L78.868,343.601L82.322,343.601Z" style="fill-rule:nonzero;"/>
    </g>
    <g transform="matrix(1,0,0,1,31.129,78.4955)">
        <path d="M66.977,337.167L66.977,331.982L56.43,331.982L56.43,327.657L67.61,311.292L71.758,311.292L71.758,327.64L74.958,327.64L74.958,331.982L71.758,331.982L71.758,337.167L66.977,337.167ZM66.977,327.64L66.977,318.833L61.053,327.64L66.977,327.64Z" style="fill-rule:nonzero;"/>
        <path d="M81.543,334.07C82.998,334.07 84.136,334.589 84.956,335.628C85.933,336.857 86.421,338.897 86.421,341.746C86.421,344.588 85.929,346.631 84.946,347.874C84.133,348.899 82.998,349.411 81.543,349.411C80.081,349.411 78.903,348.849 78.008,347.725C77.113,346.602 76.665,344.598 76.665,341.715C76.665,338.887 77.157,336.851 78.141,335.607C78.954,334.582 80.088,334.07 81.543,334.07ZM81.543,336.458C81.195,336.458 80.884,336.569 80.611,336.791C80.337,337.013 80.126,337.411 79.975,337.985C79.777,338.729 79.678,339.983 79.678,341.746C79.678,343.508 79.767,344.719 79.945,345.379C80.122,346.038 80.346,346.477 80.616,346.696C80.886,346.914 81.195,347.023 81.543,347.023C81.892,347.023 82.203,346.912 82.476,346.69C82.749,346.468 82.961,346.07 83.111,345.497C83.309,344.759 83.408,343.508 83.408,341.746C83.408,339.983 83.32,338.772 83.142,338.113C82.964,337.454 82.741,337.013 82.471,336.791C82.201,336.569 81.892,336.458 81.543,336.458Z" style="fill-rule:nonzero;"/>
    </g>
    <g transform="matrix(1,0,0,1,194.793,81.4875)">
        <path d="M66.977,337.167L66.977,331.982L56.43,331.982L56.43,327.657L67.61,311.292L71.758,311.292L71.758,327.64L74.958,327.64L74.958,331.982L71.758,331.982L71.758,337.167L66.977,337.167ZM66.977,327.64L66.977,318.833L61.053,327.64L66.977,327.64Z" style="fill-rule:nonzero;"/>
        <path d="M84.044,349.155L81.164,349.155L81.164,338.302C80.112,339.286 78.872,340.014 77.444,340.485L77.444,337.872C78.196,337.626 79.012,337.16 79.893,336.473C80.775,335.787 81.379,334.985 81.707,334.07L84.044,334.07L84.044,349.155Z" style="fill-rule:nonzero;"/>
    </g>
    <g transform="matrix(1,0,0,1,364.841,110.855)">
        <path d="M66.977,337.167L66.977,331.982L56.43,331.982L56.43,327.657L67.61,311.292L71.758,311.292L71.758,327.64L74.958,327.64L74.958,331.982L71.758,331.982L71.758,337.167L66.977,337.167ZM66.977,327.64L66.977,318.833L61.053,327.64L66.977,327.64Z" style="fill-rule:nonzero;"/>
        <path d="M86.401,346.48L86.401,349.155L76.306,349.155C76.416,348.144 76.744,347.186 77.29,346.281C77.837,345.375 78.916,344.175 80.529,342.678C81.827,341.469 82.623,340.649 82.916,340.219C83.313,339.624 83.511,339.037 83.511,338.456C83.511,337.814 83.338,337.32 82.993,336.975C82.648,336.63 82.172,336.458 81.564,336.458C80.963,336.458 80.484,336.639 80.129,337.001C79.774,337.363 79.569,337.964 79.514,338.805L76.645,338.518C76.815,336.933 77.352,335.795 78.254,335.105C79.155,334.415 80.283,334.07 81.635,334.07C83.118,334.07 84.283,334.47 85.13,335.269C85.977,336.068 86.401,337.062 86.401,338.251C86.401,338.928 86.28,339.571 86.037,340.183C85.794,340.794 85.41,341.435 84.884,342.104C84.536,342.549 83.907,343.187 82.998,344.021C82.09,344.854 81.514,345.408 81.272,345.681C81.029,345.954 80.833,346.221 80.682,346.48L86.401,346.48Z" style="fill-rule:nonzero;"/>
    </g>
    <g transform="matrix(1,0,0,1,549.272,134.536)">
        <path d="M66.977,337.167L66.977,331.982L56.43,331.982L56.43,327.657L67.61,311.292L71.758,311.292L71.758,327.64L74.958,327.64L74.958,331.982L71.758,331.982L71.758,337.167L66.977,337.167ZM66.977,327.64L66.977,318.833L61.053,327.64L66.977,327.64Z" style="fill-rule:nonzero;"/>
        <path d="M76.573,345.169L79.36,344.83C79.449,345.541 79.688,346.084 80.078,346.46C80.467,346.836 80.939,347.023 81.492,347.023C82.086,347.023 82.587,346.798 82.993,346.347C83.4,345.896 83.603,345.288 83.603,344.523C83.603,343.799 83.408,343.225 83.019,342.801C82.63,342.378 82.155,342.166 81.594,342.166C81.226,342.166 80.785,342.238 80.272,342.381L80.59,340.034C81.369,340.055 81.963,339.886 82.373,339.527C82.783,339.168 82.988,338.692 82.988,338.097C82.988,337.592 82.838,337.189 82.537,336.888C82.237,336.588 81.837,336.437 81.338,336.437C80.846,336.437 80.426,336.608 80.078,336.95C79.729,337.291 79.518,337.79 79.442,338.446L76.788,337.995C76.973,337.086 77.251,336.36 77.623,335.817C77.996,335.274 78.515,334.847 79.181,334.536C79.847,334.225 80.594,334.07 81.42,334.07C82.834,334.07 83.969,334.521 84.823,335.423C85.526,336.161 85.878,336.994 85.878,337.923C85.878,339.242 85.157,340.294 83.716,341.08C84.577,341.264 85.265,341.677 85.781,342.32C86.297,342.962 86.555,343.737 86.555,344.646C86.555,345.965 86.073,347.088 85.11,348.018C84.146,348.947 82.947,349.411 81.512,349.411C80.153,349.411 79.026,349.02 78.131,348.238C77.236,347.456 76.716,346.433 76.573,345.169Z" style="fill-rule:nonzero;"/>
    </g>
    <g transform="matrix(1,0,0,1,746.943,179.59)">
        <path d="M66.977,337.167L66.977,331.982L56.43,331.982L56.43,327.657L67.61,311.292L71.758,311.292L71.758,327.64L74.958,327.64L74.958,331.982L71.758,331.982L71.758,337.167L66.977,337.167ZM66.977,327.64L66.977,318.833L61.053,327.64L66.977,327.64Z" style="fill-rule:nonzero;"/>
        <path d="M82.322,349.155L82.322,346.132L76.173,346.132L76.173,343.611L82.691,334.07L85.11,334.07L85.11,343.601L86.975,343.601L86.975,346.132L85.11,346.132L85.11,349.155L82.322,349.155ZM82.322,343.601L82.322,338.466L78.868,343.601L82.322,343.601Z" style="fill-rule:nonzero;"/>
    </g>
    <g transform="matrix(1,0,0,1,-0.182415,6.05667)">
        <path d="M74.858,194.659C74.858,203.942 73.316,217.261 77.579,225.685C82.349,235.112 94.818,237.385 103.059,233.264C104.21,232.688 109.703,227.578 110.251,226.481C113.975,219.033 116.48,212.993 116.48,204.104" style="fill:none;stroke:rgb(6,0,255);stroke-width:15px;stroke-linecap:round;"/>
    </g>
    <g transform="matrix(0.999818,-0.019088,0.019088,0.999818,-4.82629,7.66294)">
        <path d="M92.739,276.928L94.045,234.973" style="fill:none;stroke:rgb(6,0,255);stroke-width:7.5px;"/>
    </g>
    <g transform="matrix(1,0,0,1,108.935,398.183)">
        <path d="M74.858,194.659C74.858,203.942 73.316,217.261 77.579,225.685C82.349,235.112 94.818,237.385 103.059,233.264C104.21,232.688 109.703,227.578 110.251,226.481C113.975,219.033 116.48,212.993 116.48,204.104" style="fill:none;stroke:rgb(6,0,255);stroke-width:15px;stroke-linecap:round;"/>
    </g>
    <g transform="matrix(0.999818,-0.019088,0.019088,0.999818,104.291,399.789)">
        <path d="M92.739,276.928L94.045,234.973" style="fill:none;stroke:rgb(6,0,255);stroke-width:7.5px;"/>
    </g>
    <g transform="matrix(1,0,0,1,262.935,398.183)">
        <path d="M74.858,194.659C74.858,203.942 73.316,217.261 77.579,225.685C82.349,235.112 94.818,237.385 103.059,233.264C104.21,232.688 109.703,227.578 110.251,226.481C113.975,219.033 116.48,212.993 116.48,204.104" style="fill:none;stroke:rgb(6,0,255);stroke-width:15px;stroke-linecap:round;"/>
    </g>
    <g transform="matrix(0.999818,-0.019088,0.019088,0.999818,258.291,399.789)">
        <path d="M92.739,276.928L94.045,234.973" style="fill:none;stroke:rgb(6,0,255);stroke-width:7.5px;"/>
    </g>
    <g transform="matrix(1,0,0,1,368.935,398.183)">
        <path d="M74.858,194.659C74.858,203.942 73.316,217.261 77.579,225.685C82.349,235.112 94.818,237.385 103.059,233.264C104.21,232.688 109.703,227.578 110.251,226.481C113.975,219.033 116.48,212.993 116.48,204.104" style="fill:none;stroke:rgb(6,0,255);stroke-width:15px;stroke-linecap:round;"/>
    </g>
    <g transform="matrix(0.999818,-0.019088,0.019088,0.999818,364.291,399.789)">
        <path d="M92.739,276.928L94.045,234.973" style="fill:none;stroke:rgb(6,0,255);stroke-width:7.5px;"/>
    </g>
    <g>
        <g transform="matrix(1,0,0,1,518.935,398.183)">
            <path d="M74.858,194.659C74.858,203.942 73.316,217.261 77.579,225.685C82.349,235.112 94.818,237.385 103.059,233.264C104.21,232.688 109.703,227.578 110.251,226.481C113.975,219.033 116.48,212.993 116.48,204.104" style="fill:none;stroke:rgb(6,0,255);stroke-width:15px;stroke-linecap:round;"/>
        </g>
        <g transform="matrix(0.999818,-0.019088,0.019088,0.999818,514.291,399.789)">
            <path d="M92.739,276.928L94.045,234.973" style="fill:none;stroke:rgb(6,0,255);stroke-width:7.5px;"/>
        </g>
    </g>
    <g transform="matrix(1,0,0,1,614.935,398.183)">
        <path d="M74.858,194.659C74.858,203.942 73.316,217.261 77.579,225.685C82.349,235.112 94.818,237.385 103.059,233.264C104.21,232.688 109.703,227.578 110.251,226.481C113.975,219.033 116.48,212.993 116.48,204.104" style="fill:none;stroke:rgb(6,0,255);stroke-width:15px;stroke-linecap:round;"/>
    </g>
    <g transform="matrix(0.999818,-0.019088,0.019088,0.999818,610.291,399.789)">
        <path d="M92.739,276.928L94.045,234.973" style="fill:none;stroke:rgb(6,0,255);stroke-width:7.5px;"/>
    </g>
    <g>
        <g transform="matrix(1,0,0,1,709.935,398.183)">
            <path d="M74.858,194.659C74.858,203.942 73.316,217.261 77.579,225.685C82.349,235.112 94.818,237.385 103.059,233.264C104.21,232.688 109.703,227.578 110.251,226.481C113.975,219.033 116.48,212.993 116.48,204.104" style="fill:none;stroke:rgb(6,0,255);stroke-width:15px;stroke-linecap:round;"/>
        </g>
        <g transform="matrix(0.999818,-0.019088,0.019088,0.999818,705.291,399.789)">
            <path d="M92.739,276.928L94.045,234.973" style="fill:none;stroke:rgb(6,0,255);stroke-width:7.5px;"/>
        </g>
    </g>
    <g>
        <g transform="matrix(1,0,0,1,780.935,398.183)">
            <path d="M74.858,194.659C74.858,203.942 73.316,217.261 77.579,225.685C82.349,235.112 94.818,237.385 103.059,233.264C104.21,232.688 109.703,227.578 110.251,226.481C113.975,219.033 116.48,212.993 116.48,204.104" style="fill:none;stroke:rgb(6,0,255);stroke-width:15px;stroke-linecap:round;"/>
        </g>
        <g transform="matrix(0.999818,-0.019088,0.019088,0.999818,776.291,399.789)">
            <path d="M92.739,276.928L94.045,234.973" style="fill:none;stroke:rgb(6,0,255);stroke-width:7.5px;"/>
        </g>
    </g>
    <g transform="matrix(1,0,0,1,166.818,6.05667)">
        <path d="M74.858,194.659C74.858,203.942 73.316,217.261 77.579,225.685C82.349,235.112 94.818,237.385 103.059,233.264C104.21,232.688 109.703,227.578 110.251,226.481C113.975,219.033 116.48,212.993 116.48,204.104" style="fill:none;stroke:rgb(6,0,255);stroke-width:15px;stroke-linecap:round;"/>
    </g>
    <g transform="matrix(0.999818,-0.019088,0.019088,0.999818,162.174,7.66294)">
        <path d="M92.739,276.928L94.045,234.973" style="fill:none;stroke:rgb(6,0,255);stroke-width:7.5px;"/>
    </g>
    <g transform="matrix(1,0,0,1,1,-1)">
        <g transform="matrix(1,0,0,1,298.818,6.05667)">
            <path d="M74.858,194.659C74.858,203.942 73.316,217.261 77.579,225.685C82.349,235.112 94.818,237.385 103.059,233.264C104.21,232.688 109.703,227.578 110.251,226.481C113.975,219.033 116.48,212.993 116.48,204.104" style="fill:none;stroke:rgb(6,0,255);stroke-width:15px;stroke-linecap:round;"/>
        </g>
        <g transform="matrix(0.999818,-0.019088,0.019088,0.999818,294.174,7.66294)">
            <path d="M92.739,276.928L94.045,234.973" style="fill:none;stroke:rgb(6,0,255);stroke-width:7.5px;"/>
        </g>
    </g>
    <g transform="matrix(1,0,0,1,441.818,6.05667)">
        <path d="M74.858,194.659C74.858,203.942 73.316,217.261 77.579,225.685C82.349,235.112 94.818,237.385 103.059,233.264C104.21,232.688 109.703,227.578 110.251,226.481C113.975,219.033 116.48,212.993 116.48,204.104" style="fill:none;stroke:rgb(6,0,255);stroke-width:15px;stroke-linecap:round;"/>
    </g>
    <g transform="matrix(0.999818,-0.019088,0.019088,0.999818,437.174,7.66294)">
        <path d="M92.739,276.928L94.045,234.973" style="fill:none;stroke:rgb(6,0,255);stroke-width:7.5px;"/>
    </g>
    <g transform="matrix(1,0,0,1,627.818,6.05667)">
        <path d="M74.858,194.659C74.858,203.942 73.316,217.261 77.579,225.685C82.349,235.112 94.818,237.385 103.059,233.264C104.21,232.688 109.703,227.578 110.251,226.481C113.975,219.033 116.48,212.993 116.48,204.104" style="fill:none;stroke:rgb(6,0,255);stroke-width:15px;stroke-linecap:round;"/>
    </g>
    <g transform="matrix(0.999818,-0.019088,0.019088,0.999818,623.174,7.66294)">
        <path d="M92.739,276.928L94.045,234.973" style="fill:none;stroke:rgb(6,0,255);stroke-width:7.5px;"/>
    </g>
    <g transform="matrix(1,0,0,1,95.5965,5.37011)">
        <path d="M74.858,194.659C74.858,203.942 73.316,217.261 77.579,225.685C82.349,235.112 94.818,237.385 103.059,233.264C104.21,232.688 109.703,227.578 110.251,226.481C113.975,219.033 116.48,212.993 116.48,204.104" style="fill:none;stroke:rgb(255,22,22);stroke-width:15px;stroke-linecap:round;"/>
    </g>
    <g transform="matrix(0.999818,-0.019088,0.019088,0.999818,90.9526,6.97639)">
        <path d="M92.739,276.928L94.045,234.973" style="fill:none;stroke:rgb(255,0,0);stroke-width:7.5px;"/>
    </g>
    <g transform="matrix(1,0,0,1,235.596,5.37011)">
        <path d="M74.858,194.659C74.858,203.942 73.316,217.261 77.579,225.685C82.349,235.112 94.818,237.385 103.059,233.264C104.21,232.688 109.703,227.578 110.251,226.481C113.975,219.033 116.48,212.993 116.48,204.104" style="fill:none;stroke:rgb(255,22,22);stroke-width:15px;stroke-linecap:round;"/>
    </g>
    <g transform="matrix(0.999818,-0.019088,0.019088,0.999818,230.953,6.97639)">
        <path d="M92.739,276.928L94.045,234.973" style="fill:none;stroke:rgb(255,0,0);stroke-width:7.5px;"/>
    </g>
    <g transform="matrix(1,0,0,1,386.861,5.56143)">
        <path d="M74.858,194.659C74.858,203.942 73.316,217.261 77.579,225.685C82.349,235.112 94.818,237.385 103.059,233.264C104.21,232.688 109.703,227.578 110.251,226.481C113.975,219.033 116.48,212.993 116.48,204.104" style="fill:none;stroke:rgb(115,255,115);stroke-width:15px;stroke-linecap:round;"/>
    </g>
    <g transform="matrix(0.999818,-0.019088,0.019088,0.999818,382.217,7.1677)">
        <path d="M92.739,276.928L94.045,234.973" style="fill:none;stroke:rgb(102,255,102);stroke-width:7.5px;"/>
    </g>
    <g transform="matrix(1,0,0,1,512.182,7.47233)">
        <path d="M74.858,194.659C74.858,203.942 73.316,217.261 77.579,225.685C82.349,235.112 94.818,237.385 103.059,233.264C104.21,232.688 109.703,227.578 110.251,226.481C113.975,219.033 116.48,212.993 116.48,204.104" style="fill:none;stroke:rgb(115,255,115);stroke-width:15px;stroke-linecap:round;"/>
    </g>
    <g transform="matrix(0.999818,-0.019088,0.019088,0.999818,507.538,9.07861)">
        <path d="M92.739,276.928L94.045,234.973" style="fill:none;stroke:rgb(102,255,102);stroke-width:7.5px;"/>
    </g>
    <g transform="matrix(1,0,0,1,569.539,5.87732)">
        <path d="M74.858,194.659C74.858,203.942 73.316,217.261 77.579,225.685C82.349,235.112 94.818,237.385 103.059,233.264C104.21,232.688 109.703,227.578 110.251,226.481C113.975,219.033 116.48,212.993 116.48,204.104" style="fill:none;stroke:rgb(115,255,115);stroke-width:15px;stroke-linecap:round;"/>
    </g>
    <g transform="matrix(0.999818,-0.019088,0.019088,0.999818,564.895,7.48359)">
        <path d="M92.739,276.928L94.045,234.973" style="fill:none;stroke:rgb(102,255,102);stroke-width:7.5px;"/>
    </g>
    <g transform="matrix(1,0,0,1,699.539,5.87732)">
        <path d="M74.858,194.659C74.858,203.942 73.316,217.261 77.579,225.685C82.349,235.112 94.818,237.385 103.059,233.264C104.21,232.688 109.703,227.578 110.251,226.481C113.975,219.033 116.48,212.993 116.48,204.104" style="fill:none;stroke:rgb(115,255,115);stroke-width:15px;stroke-linecap:round;"/>
    </g>
    <g transform="matrix(0.999818,-0.019088,0.019088,0.999818,694.895,7.48359)">
        <path d="M92.739,276.928L94.045,234.973" style="fill:none;stroke:rgb(102,255,102);stroke-width:7.5px;"/>
    </g>
    <g>
        <g transform="matrix(1,0,0,1,733.539,5.87732)">
            <path d="M74.858,194.659C74.858,203.942 73.316,217.261 77.579,225.685C82.349,235.112 94.818,237.385 103.059,233.264C104.21,232.688 109.703,227.578 110.251,226.481C113.975,219.033 116.48,212.993 116.48,204.104" style="fill:none;stroke:rgb(115,255,115);stroke-width:15px;stroke-linecap:round;"/>
        </g>
        <g transform="matrix(0.999818,-0.019088,0.019088,0.999818,728.895,7.48359)">
            <path d="M92.739,276.928L94.045,234.973" style="fill:none;stroke:rgb(102,255,102);stroke-width:7.5px;"/>
        </g>
    </g>
    <g transform="matrix(1,0,0,1,-59,392)">
        <g transform="matrix(1,0,0,1,733.539,5.87732)">
            <path d="M74.858,194.659C74.858,203.942 73.316,217.261 77.579,225.685C82.349,235.112 94.818,237.385 103.059,233.264C104.21,232.688 109.703,227.578 110.251,226.481C113.975,219.033 116.48,212.993 116.48,204.104" style="fill:none;stroke:rgb(115,255,115);stroke-width:15px;stroke-linecap:round;"/>
        </g>
        <g transform="matrix(0.999818,-0.019088,0.019088,0.999818,728.895,7.48359)">
            <path d="M92.739,276.928L94.045,234.973" style="fill:none;stroke:rgb(102,255,102);stroke-width:7.5px;"/>
        </g>
    </g>
    <g transform="matrix(1,0,0,1,-254,391)">
        <g transform="matrix(1,0,0,1,733.539,5.87732)">
            <path d="M74.858,194.659C74.858,203.942 73.316,217.261 77.579,225.685C82.349,235.112 94.818,237.385 103.059,233.264C104.21,232.688 109.703,227.578 110.251,226.481C113.975,219.033 116.48,212.993 116.48,204.104" style="fill:none;stroke:rgb(115,255,115);stroke-width:15px;stroke-linecap:round;"/>
        </g>
        <g transform="matrix(0.999818,-0.019088,0.019088,0.999818,728.895,7.48359)">
            <path d="M92.739,276.928L94.045,234.973" style="fill:none;stroke:rgb(102,255,102);stroke-width:7.5px;"/>
        </g>
    </g>
    <g transform="matrix(1,0,0,1,-402,390)">
        <g transform="matrix(1,0,0,1,733.539,5.87732)">
            <path d="M74.858,194.659C74.858,203.942 73.316,217.261 77.579,225.685C82.349,235.112 94.818,237.385 103.059,233.264C104.21,232.688 109.703,227.578 110.251,226.481C113.975,219.033 116.48,212.993 116.48,204.104" style="fill:none;stroke:rgb(115,255,115);stroke-width:15px;stroke-linecap:round;"/>
        </g>
        <g transform="matrix(0.999818,-0.019088,0.019088,0.999818,728.895,7.48359)">
            <path d="M92.739,276.928L94.045,234.973" style="fill:none;stroke:rgb(102,255,102);stroke-width:7.5px;"/>
        </g>
    </g>
    <g transform="matrix(-1,0,0,1,1113.14,391)">
        <g transform="matrix(1,0,0,1,733.539,5.87732)">
            <path d="M74.858,194.659C74.858,203.942 73.316,217.261 77.579,225.685C82.349,235.112 94.818,237.385 103.059,233.264C104.21,232.688 109.703,227.578 110.251,226.481C113.975,219.033 116.48,212.993 116.48,204.104" style="fill:none;stroke:rgb(115,255,115);stroke-width:15px;stroke-linecap:round;"/>
        </g>
        <g transform="matrix(0.999818,-0.019088,0.019088,0.999818,728.895,7.48359)">
            <path d="M92.739,276.928L94.045,234.973" style="fill:none;stroke:rgb(102,255,102);stroke-width:7.5px;"/>
        </g>
    </g>
    <g transform="matrix(1,0,0,1,-724,392)">
        <g transform="matrix(1,0,0,1,733.539,5.87732)">
            <path d="M74.858,194.659C74.858,203.942 73.316,217.261 77.579,225.685C82.349,235.112 94.818,237.385 103.059,233.264C104.21,232.688 109.703,227.578 110.251,226.481C113.975,219.033 116.48,212.993 116.48,204.104" style="fill:none;stroke:rgb(115,255,115);stroke-width:15px;stroke-linecap:round;"/>
        </g>
        <g transform="matrix(0.999818,-0.019088,0.019088,0.999818,728.895,7.48359)">
            <path d="M92.739,276.928L94.045,234.973" style="fill:none;stroke:rgb(102,255,102);stroke-width:7.5px;"/>
        </g>
    </g>
    <g transform="matrix(1,0,0,1,415.596,398.37)">
        <path d="M74.858,194.659C74.858,203.942 73.316,217.261 77.579,225.685C82.349,235.112 94.818,237.385 103.059,233.264C104.21,232.688 109.703,227.578 110.251,226.481C113.975,219.033 116.48,212.993 116.48,204.104" style="fill:none;stroke:rgb(255,22,22);stroke-width:15px;stroke-linecap:round;"/>
    </g>
    <g transform="matrix(0.999818,-0.019088,0.019088,0.999818,410.953,399.976)">
        <path d="M92.739,276.928L94.045,234.973" style="fill:none;stroke:rgb(255,0,0);stroke-width:7.5px;"/>
    </g>
    <g transform="matrix(1,0,0,1,1,0)">
        <g transform="matrix(1,0,0,1,550.596,398.37)">
            <path d="M74.858,194.659C74.858,203.942 73.316,217.261 77.579,225.685C82.349,235.112 94.818,237.385 103.059,233.264C104.21,232.688 109.703,227.578 110.251,226.481C113.975,219.033 116.48,212.993 116.48,204.104" style="fill:none;stroke:rgb(255,22,22);stroke-width:15px;stroke-linecap:round;"/>
        </g>
        <g transform="matrix(0.999818,-0.019088,0.019088,0.999818,545.953,399.976)">
            <path d="M92.739,276.928L94.045,234.973" style="fill:none;stroke:rgb(255,0,0);stroke-width:7.5px;"/>
        </g>
    </g>
    <g transform="matrix(1,0,0,1,-3,-1)">
        <g transform="matrix(1,0,0,1,748.596,398.37)">
            <path d="M74.858,194.659C74.858,203.942 73.316,217.261 77.579,225.685C82.349,235.112 94.818,237.385 103.059,233.264C104.21,232.688 109.703,227.578 110.251,226.481C113.975,219.033 116.48,212.993 116.48,204.104" style="fill:none;stroke:rgb(255,22,22);stroke-width:15px;stroke-linecap:round;"/>
        </g>
        <g transform="matrix(0.999818,-0.019088,0.019088,0.999818,743.953,399.976)">
            <path d="M92.739,276.928L94.045,234.973" style="fill:none;stroke:rgb(255,0,0);stroke-width:7.5px;"/>
        </g>
    </g>
    <g transform="matrix(1,0,0,1,335.596,5.37011)">
        <path d="M74.858,194.659C74.858,203.942 73.316,217.261 77.579,225.685C82.349,235.112 94.818,237.385 103.059,233.264C104.21,232.688 109.703,227.578 110.251,226.481C113.975,219.033 116.48,212.993 116.48,204.104" style="fill:none;stroke:rgb(255,22,22);stroke-width:15px;stroke-linecap:round;"/>
    </g>
    <g transform="matrix(0.999818,-0.019088,0.019088,0.999818,330.953,6.97639)">
        <path d="M92.739,276.928L94.045,234.973" style="fill:none;stroke:rgb(255,0,0);stroke-width:7.5px;"/>
    </g>
    <g transform="matrix(-1,0,-0,1,1150.26,0)">
        <g transform="matrix(1,0,0,1,479.596,5.37011)">
            <path d="M74.858,194.659C74.858,203.942 73.316,217.261 77.579,225.685C82.349,235.112 94.818,237.385 103.059,233.264C104.21,232.688 109.703,227.578 110.251,226.481C113.975,219.033 116.48,212.993 116.48,204.104" style="fill:none;stroke:rgb(255,22,22);stroke-width:15px;stroke-linecap:round;"/>
        </g>
        <g transform="matrix(0.999818,-0.019088,0.019088,0.999818,474.953,6.97639)">
            <path d="M92.739,276.928L94.045,234.973" style="fill:none;stroke:rgb(255,0,0);stroke-width:7.5px;"/>
        </g>
    </g>
    <g transform="matrix(1,0,0,1,662.596,5.37011)">
        <path d="M74.858,194.659C74.858,203.942 73.316,217.261 77.579,225.685C82.349,235.112 94.818,237.385 103.059,233.264C104.21,232.688 109.703,227.578 110.251,226.481C113.975,219.033 116.48,212.993 116.48,204.104" style="fill:none;stroke:rgb(255,22,22);stroke-width:15px;stroke-linecap:round;"/>
    </g>
    <g transform="matrix(0.999818,-0.019088,0.019088,0.999818,657.953,6.97639)">
        <path d="M92.739,276.928L94.045,234.973" style="fill:none;stroke:rgb(255,0,0);stroke-width:7.5px;"/>
    </g>
    <g transform="matrix(1,0,0,1,809.596,5.37011)">
        <path d="M74.858,194.659C74.858,203.942 73.316,217.261 77.579,225.685C82.349,235.112 94.818,237.385 103.059,233.264C104.21,232.688 109.703,227.578 110.251,226.481C113.975,219.033 116.48,212.993 116.48,204.104" style="fill:none;stroke:rgb(255,22,22);stroke-width:15px;stroke-linecap:round;"/>
    </g>
    <g transform="matrix(0.999818,-0.019088,0.019088,0.999818,804.953,6.97639)">
        <path d="M92.739,276.928L94.045,234.973" style="fill:none;stroke:rgb(255,0,0);stroke-width:7.5px;"/>
    </g>
    <g transform="matrix(1,0,0,1,0,1)">
        <rect x="16.265" y="282.087" width="927.45" height="5.415" style="fill:rgb(207,203,203);stroke:rgb(207,203,203);stroke-width:4px;stroke-linecap:round;"/>
    </g>
    <g transform="matrix(1,0,0,1,-43.4837,-255.975)">
        <path d="M217.263,340.296L233.66,347.237L233.66,351.473L217.263,358.414L216.088,355.572L227.511,350.926L190.837,350.926L202.315,355.572L201.085,358.414L184.743,351.473L184.743,347.237L201.085,340.296L202.315,343.138L190.837,347.784L227.511,347.784L216.088,343.138L217.263,340.296Z" style="fill-rule:nonzero;"/>
    </g>
    <g transform="matrix(1,0,0,1,111.756,-188.686)">
        <path d="M217.263,340.296L233.66,347.237L233.66,351.473L217.263,358.414L216.088,355.572L227.511,350.926L190.837,350.926L202.315,355.572L201.085,358.414L184.743,351.473L184.743,347.237L201.085,340.296L202.315,343.138L190.837,347.784L227.511,347.784L216.088,343.138L217.263,340.296Z" style="fill-rule:nonzero;"/>
    </g>
    <g transform="matrix(1,0,0,1,285.206,-188.61)">
        <path d="M217.263,340.296L233.66,347.237L233.66,351.473L217.263,358.414L216.088,355.572L227.511,350.926L190.837,350.926L202.315,355.572L201.085,358.414L184.743,351.473L184.743,347.237L201.085,340.296L202.315,343.138L190.837,347.784L227.511,347.784L216.088,343.138L217.263,340.296Z" style="fill-rule:nonzero;"/>
    </g>
    <g transform="matrix(1,0,0,1,454.36,-178.19)">
        <path d="M217.263,340.296L233.66,347.237L233.66,351.473L217.263,358.414L216.088,355.572L227.511,350.926L190.837,350.926L202.315,355.572L201.085,358.414L184.743,351.473L184.743,347.237L201.085,340.296L202.315,343.138L190.837,347.784L227.511,347.784L216.088,343.138L217.263,340.296Z" style="fill-rule:nonzero;"/>
    </g>
    <g transform="matrix(1,0,0,1,-24.7484,122.794)">
        <path d="M217.263,340.296L233.66,347.237L233.66,351.473L217.263,358.414L216.088,355.572L227.511,350.926L190.837,350.926L202.315,355.572L201.085,358.414L184.743,351.473L184.743,347.237L201.085,340.296L202.315,343.138L190.837,347.784L227.511,347.784L216.088,343.138L217.263,340.296Z" style="fill-rule:nonzero;"/>
    </g>
    <g transform="matrix(1,0,0,1,137.759,193.756)">
        <path d="M217.263,340.296L233.66,347.237L233.66,351.473L217.263,358.414L216.088,355.572L227.511,350.926L190.837,350.926L202.315,355.572L201.085,358.414L184.743,351.473L184.743,347.237L201.085,340.296L202.315,343.138L190.837,347.784L227.511,347.784L216.088,343.138L217.263,340.296Z" style="fill-rule:nonzero;"/>
    </g>
    <g transform="matrix(1,0,0,1,321.186,195.867)">
        <path d="M217.263,340.296L233.66,347.237L233.66,351.473L217.263,358.414L216.088,355.572L227.511,350.926L190.837,350.926L202.315,355.572L201.085,358.414L184.743,351.473L184.743,347.237L201.085,340.296L202.315,343.138L190.837,347.784L227.511,347.784L216.088,343.138L217.263,340.296Z" style="fill-rule:nonzero;"/>
    </g>
    <g transform="matrix(1,0,0,1,494.918,205.081)">
        <path d="M217.263,340.296L233.66,347.237L233.66,351.473L217.263,358.414L216.088,355.572L227.511,350.926L190.837,350.926L202.315,355.572L201.085,358.414L184.743,351.473L184.743,347.237L201.085,340.296L202.315,343.138L190.837,347.784L227.511,347.784L216.088,343.138L217.263,340.296Z" style="fill-rule:nonzero;"/>
    </g>
    <g transform="matrix(1,0,0,1,-0.193538,390.533)">
        <rect x="16.265" y="282.087" width="927.45" height="5.415" style="fill:rgb(207,203,203);stroke:rgb(207,203,203);stroke-width:4px;stroke-linecap:round;"/>
    </g>
</svg>
