<?xml version="1.0" encoding="utf-8"?>
<!-- Generator: Adobe Illustrator 21.0.2, SVG Export Plug-In . SVG Version: 6.00 Build 0)  -->
<svg version="1.1" id="Layer_1" xmlns="http://www.w3.org/2000/svg" xmlns:xlink="http://www.w3.org/1999/xlink" x="0px" y="0px"
	 viewBox="0 0 153.4 146.5" style="enable-background:new 0 0 153.4 146.5;" xml:space="preserve">
<style type="text/css">
	.st0{fill:#030303;}
	.st1{fill:none;stroke:#000000;stroke-width:2;stroke-miterlimit:10;}
	.st2{fill:#C0C0C0;}
	.st3{fill:#AAAAAA;}
	.st4{fill:#9D9D9D;}
	.st5{fill:none;stroke:#A5A3A4;stroke-width:3;stroke-miterlimit:10;}
	.st6{fill:none;stroke:#A5A3A4;stroke-width:2;stroke-miterlimit:10;}
	.st7{fill:none;stroke:#000000;stroke-miterlimit:10;}
	.st8{font-family:'MyriadPro-Regular';}
	.st9{font-size:12px;}
	.st10{font-size:6.996px;}
</style>
<circle class="st0" cx="77.7" cy="127.1" r="3.5"/>
<circle class="st0" cx="86.7" cy="127.1" r="3.5"/>
<circle class="st0" cx="94.7" cy="127.1" r="3.5"/>
<circle class="st0" cx="87.3" cy="99.2" r="3.5"/>
<path class="st1" d="M77.8,124.3c-0.1-1.6-0.1-3.2,0.3-4.7s1.2-3,2.5-4c1.1-0.8,2.5-1.2,3.8-1.5c0.8-0.2,1.6-0.4,2.5-0.6
	c1-0.3,2.1-0.5,3.2-0.5c1.1,0,2.2,0.4,2.9,1.3c0.6,0.8,0.8,1.8,0.9,2.8c0.4,2.8,0.8,5.5,1.1,8.3"/>
<path class="st1" d="M86.6,124.8c-1.1-6.1-2.2-12.4-1.1-18.6c0.5-2.4,1.3-4.7,1.7-7"/>
<circle class="st0" cx="45.7" cy="127.1" r="3.5"/>
<circle class="st0" cx="53.7" cy="127.1" r="3.5"/>
<circle class="st0" cx="120.7" cy="127.1" r="3.5"/>
<circle class="st0" cx="129.7" cy="127.1" r="3.5"/>
<circle class="st0" cx="138.7" cy="127" r="3.5"/>
<circle class="st0" cx="146.7" cy="127" r="3.5"/>
<path class="st1" d="M10.9,95.5c-0.4,3.6-0.7,7.1-1.1,10.7c-0.1,1-0.2,2.1,0.1,3.1c0.8,2.3,3.7,3.3,4.7,5.5s-0.3,4.7-0.8,7.1
	c-0.6,2.5-0.5,5.1,0.4,7.5"/>
<path class="st1" d="M17.1,108.8c-0.3,1.3-1.8,1.9-3.2,1.9c-0.3,0-0.6,0-0.8,0.1c-0.7,0.3-0.7,1.3-0.6,2.1c0.1,0.8,0,1.6-0.1,2.4
	c-0.1,0.4-0.2,0.8-0.5,1c-0.2,0.2-0.5,0.2-0.8,0.2c-1.1,0.1-2.5,0.2-3.2-0.7c-0.4-0.4-0.5-1-0.6-1.6c-0.2-0.7-0.3-1.4-0.5-2"/>
<circle class="st0" cx="11.2" cy="95.1" r="3.5"/>
<circle class="st0" cx="17.1" cy="108.2" r="3.5"/>
<circle class="st0" cx="6.4" cy="112.8" r="3.5"/>
<circle class="st0" cx="13.8" cy="128.3" r="3.5"/>
<path class="st2" d="M10.2,129.9c0.5,0.6,1,1.3,1.4,1.9C10.3,131.6,10.2,131.5,10.2,129.9z"/>
<path class="st3" d="M136.4,130.8c-0.4,0-0.8,0-1.3,0c-0.3-0.4-0.6-0.9-1.1-1.6c-0.4,0.4-0.7,0.8-1,1.1c-0.3,0-0.6,0-1,0
	c0.7-1.2,1.2-2.4,1-3.8c0.8,0.2,1.6,0.3,2.4,0.5c0,0.6,0,1.1,0,1.7c0.4,0.4,0.8,0.9,1.3,1.3c1,0.6,2,1.5,3.2,0.4
	c0.1-0.1,0.5,0,0.7,0c0,0.3,0,0.6,0,1c-1.1-0.2-1.8,0.4-2.7,0.9C137.7,131.5,137.5,130.7,136.4,130.8z"/>
<path class="st4" d="M83.6,130.3c-0.6-0.5-1.2-0.5-1.9-0.5c-0.2,0-0.3,0-0.5,0c0.3-0.5,0.6-1,0.5-1.7s0-1.4,0-2.1
	c0.2,0.3,0.5,0.6,0.8,1c0.3-0.2,0.7-0.4,1.1-0.5c0,0.7-0.1,1.4,0,2.1c0.1,0.6,0.3,1.1,0.5,1.7C83.9,130.3,83.7,130.3,83.6,130.3z"/>
<path class="st4" d="M84.1,130.3c0.2,0.2,0.3,0.3,0.5,0.5C84.4,130.7,84.2,130.5,84.1,130.3z"/>
<path class="st2" d="M144.5,130.3c-0.2-0.2-0.3-0.3-0.5-0.5C144.2,130,144.3,130.2,144.5,130.3z"/>
<line class="st5" x1="1.5" y1="143.2" x2="151.8" y2="143.2"/>
<g>
	<line class="st6" x1="13.7" y1="132.4" x2="13.7" y2="144.3"/>
	<path class="st6" d="M18,128.1c0,2.4-1.9,4.3-4.3,4.3c-2.4,0-4.3-1.9-4.3-4.3"/>
</g>
<g>
	<line class="st6" x1="30.7" y1="130.4" x2="30.7" y2="143.3"/>
	<path class="st6" d="M35,126.1c0,2.4-1.9,4.3-4.3,4.3s-4.3-1.9-4.3-4.3"/>
</g>
<g>
	<line class="st6" x1="45.7" y1="131.4" x2="45.7" y2="144.3"/>
	<path class="st6" d="M50,127.1c0,2.4-1.9,4.3-4.3,4.3s-4.3-1.9-4.3-4.3"/>
</g>
<g>
	<line class="st6" x1="53.7" y1="131.4" x2="53.7" y2="144.3"/>
	<path class="st6" d="M58,127.1c0,2.4-1.9,4.3-4.3,4.3s-4.3-1.9-4.3-4.3"/>
</g>
<g>
	<line class="st6" x1="64.7" y1="130.4" x2="64.7" y2="143.3"/>
	<path class="st6" d="M69,126.1c0,2.4-1.9,4.3-4.3,4.3s-4.3-1.9-4.3-4.3"/>
</g>
<g>
	<line class="st6" x1="77.7" y1="131.4" x2="77.7" y2="144.3"/>
	<path class="st6" d="M82,127.1c0,2.4-1.9,4.3-4.3,4.3s-4.3-1.9-4.3-4.3"/>
</g>
<g>
	<line class="st6" x1="86.7" y1="131.4" x2="86.7" y2="144.3"/>
	<path class="st6" d="M91,127.1c0,2.4-1.9,4.3-4.3,4.3c-2.4,0-4.3-1.9-4.3-4.3"/>
</g>
<g>
	<line class="st6" x1="94.7" y1="131.4" x2="94.7" y2="144.3"/>
	<path class="st6" d="M99,127.1c0,2.4-1.9,4.3-4.3,4.3c-2.4,0-4.3-1.9-4.3-4.3"/>
</g>
<g>
	<line class="st6" x1="108.7" y1="130.4" x2="108.7" y2="143.3"/>
	<path class="st6" d="M113,126.1c0,2.4-1.9,4.3-4.3,4.3c-2.4,0-4.3-1.9-4.3-4.3"/>
</g>
<g>
	<line class="st6" x1="120.7" y1="131.4" x2="120.7" y2="144.3"/>
	<path class="st6" d="M125,127.1c0,2.4-1.9,4.3-4.3,4.3c-2.4,0-4.3-1.9-4.3-4.3"/>
</g>
<g>
	<line class="st6" x1="129.7" y1="131.4" x2="129.7" y2="144.3"/>
	<path class="st6" d="M134,127.1c0,2.4-1.9,4.3-4.3,4.3c-2.4,0-4.3-1.9-4.3-4.3"/>
</g>
<g>
	<line class="st6" x1="138.7" y1="131.4" x2="138.7" y2="144.3"/>
	<path class="st6" d="M143,127.1c0,2.4-1.9,4.3-4.3,4.3c-2.4,0-4.3-1.9-4.3-4.3"/>
</g>
<g>
	<line class="st6" x1="146.7" y1="131.4" x2="146.7" y2="144.3"/>
	<path class="st6" d="M151,127.1c0,2.4-1.9,4.3-4.3,4.3c-2.4,0-4.3-1.9-4.3-4.3"/>
</g>
<circle class="st0" cx="4.6" cy="47.8" r="3.5"/>
<circle class="st0" cx="18" cy="45.4" r="3.5"/>
<circle class="st0" cx="18" cy="68.8" r="3.5"/>
<circle class="st0" cx="6.3" cy="68.8" r="3.5"/>
<path class="st1" d="M5.1,49.1c0.7,0.8,1.3,1.8,1.8,2.7c0.2,0.4,0.4,0.9,0.7,1.2c0.5,0.6,1.4,0.9,2.1,1.4c0.5,0.4,0.9,1.1,1.5,1.5
	c0.3,0.2,0.7,0.4,0.9,0.6s0.4,0.5,0.5,0.9c0.4,1,0.6,2,1.2,2.9c0.2,0.4,0.5,0.7,0.7,1.1c0.2,0.3,0.4,0.7,0.5,1.1
	c0.8,1.9,1.6,3.8,2.5,5.8"/>
<path class="st1" d="M17.8,46c0,0.9-0.1,1.9-0.1,2.8c0,1.2-0.1,2.5-0.6,3.6c-0.5,1-1.4,1.8-2.4,2.2c-0.3,0.1-0.6,0.2-0.8,0.4
	c-0.1,0.2-0.2,0.4-0.3,0.6c-0.6,1.9-1,3.8-1.1,5.8c0,0.3,0,0.7-0.3,0.9c-0.1,0.1-0.3,0.2-0.5,0.2c-1,0.3-2,0.6-3,0.5
	c-0.4,0-0.8-0.1-1,0.2c-0.2,0.2-0.2,0.5-0.2,0.7c0,0.2-0.1,0.4-0.2,0.6c-0.6,1.2-1.1,2.4-1.7,3.6"/>
<g>
	<g>
		<line class="st7" x1="11.3" y1="77.9" x2="11.3" y2="83.2"/>
		<g>
			<path d="M11.3,74.8c-0.5,1.4-1.4,3.2-2.4,4.3l2.4-0.9l2.4,0.9C12.7,78,11.8,76.3,11.3,74.8z"/>
		</g>
		<g>
			<path d="M11.3,86.2c-0.5-1.4-1.4-3.2-2.4-4.3l2.4,0.9l2.4-0.9C12.7,83,11.8,84.8,11.3,86.2z"/>
		</g>
	</g>
</g>
<g>
	<g>
		<line class="st7" x1="25.7" y1="111.4" x2="31" y2="111.4"/>
		<g>
			<path d="M22.6,111.4c1.4,0.5,3.2,1.4,4.3,2.4l-0.9-2.4l0.9-2.4C25.8,110,24.1,110.9,22.6,111.4z"/>
		</g>
		<g>
			<path d="M34,111.4c-1.4,0.5-3.2,1.4-4.3,2.4l0.9-2.4l-0.9-2.4C30.8,110,32.6,110.9,34,111.4z"/>
		</g>
	</g>
</g>
<text transform="matrix(1 0 0 1 16.1413 83.2155)" class="st8 st9">K</text>
<text transform="matrix(1 0 0 1 22.6454 87.2119)" class="st8 st10">D</text>
<text transform="matrix(1 0 0 1 23.1933 105.2344)" class="st8 st9">K</text>
<text transform="matrix(1 0 0 1 30.6974 107.2308)" class="st8 st10">x</text>
<text transform="matrix(1 0 0 1 62.7211 107.3083)" class="st8 st9">K</text>
<text transform="matrix(1 0 0 1 70.2253 109.3047)" class="st8 st10">x</text>
<text transform="matrix(1 0 0 1 101.8454 109.033)" class="st8 st9">K</text>
<text transform="matrix(1 0 0 1 109.3495 111.0294)" class="st8 st10">x</text>
<path class="st1" d="M121.2,125c-0.3-2.6-0.3-5.2,0-7.7c0.1-0.9,0.3-1.8,0.9-2.4c0.6-0.6,1.6-0.7,2.4-0.7c1.4,0,2.7,0.2,4,0.7
	c0.4,1,0.8,2.1,1.7,2.7c0.7,0.4,1.5,0.5,2.2,0.8c2.9,1,4.5,4.1,5.8,6.9"/>
<path class="st1" d="M129.5,125.3c-0.1-1.9-0.1-3.8-0.2-5.7c0-0.2,0-0.5,0.1-0.7s0.3-0.3,0.5-0.3c1.3-0.3,2.7,0.2,3.9-0.4
	c0.8-0.4,1.3-1.2,2.1-1.7c0.6-0.4,1.3-0.5,2-0.6c2-0.4,3.9-0.7,5.9-1.1c0.7-0.1,1.4-0.2,1.9,0.1c0.8,0.5,0.9,1.6,1,2.5
	c0.1,3,0.2,6,0.3,9.1"/>
<path class="st1" d="M43.7,97.1c0.2,2-0.2,4-1.1,5.7c-0.3,0.7-0.8,1.3-0.9,2c-0.3,1.8,1.3,3.4,2.9,4.3s3.5,1.7,4.4,3.3
	c1.1,1.8,0.6,4.5,2.3,5.9c0.5,0.4,1.1,0.7,1.6,1.1c1.5,1.3,1.4,3.6,1.1,5.5"/>
<path class="st1" d="M55,107.1c-1.4,1.3-3.1,2.3-4.9,2.8c-0.8,0.2-1.7,0.3-2.5,0.7c-0.8,0.3-1.6,0.9-2.3,1.5c-0.6,0.5-1.3,1-1.9,1.5
	c-0.4,0.3-0.8,0.6-1.1,1.1c-0.5,0.7-0.4,1.7,0,2.5s1.1,1.4,1.8,1.8c0.5,0.3,1,0.5,1.4,0.9c0.6,0.6,0.8,1.6,0.7,2.5
	c-0.1,0.9-0.6,1.7-1,2.5"/>
<circle class="st0" cx="43.4" cy="96.9" r="3.5"/>
<circle class="st0" cx="55" cy="107.1" r="3.5"/>
<g>
	<g>
		<line class="st7" x1="64.3" y1="113" x2="69.6" y2="113"/>
		<g>
			<path d="M61.2,113c1.4,0.5,3.2,1.4,4.3,2.4l-0.9-2.4l0.9-2.4C64.4,111.6,62.7,112.5,61.2,113z"/>
		</g>
		<g>
			<path d="M72.6,113c-1.4,0.5-3.2,1.4-4.3,2.4l0.9-2.4l-0.9-2.4C69.4,111.6,71.2,112.5,72.6,113z"/>
		</g>
	</g>
</g>
<g>
	<g>
		<line class="st7" x1="104.9" y1="115.4" x2="110.2" y2="115.4"/>
		<g>
			<path d="M101.8,115.4c1.4,0.5,3.2,1.4,4.3,2.4l-0.9-2.4l0.9-2.4C105,114,103.3,114.9,101.8,115.4z"/>
		</g>
		<g>
			<path d="M113.2,115.4c-1.4,0.5-3.2,1.4-4.3,2.4l0.9-2.4l-0.9-2.4C110,114,111.8,114.9,113.2,115.4z"/>
		</g>
	</g>
</g>
</svg>
