<svg xmlns="http://www.w3.org/2000/svg" viewBox="0 0 217.1758 109.7104"><title>Untitled-1</title><text transform="translate(121.2371 10.0439)" style="font-size:12px;fill:#231f20;font-family:MyriadPro-Regular, Myriad Pro"><tspan style="letter-spacing:-0.0679931640625em">“</tspan><tspan x="3.4321" y="0" style="letter-spacing:-0.000040690104166666664em">A/</tspan><tspan x="14.8916" y="0" style="letter-spacing:-0.0050048828125em">I</tspan><tspan x="17.6997" y="0" style="letter-spacing:-0.08601888020833333em">”</tspan><tspan x="20.9155" y="0"> </tspan><tspan x="23.4595" y="0" style="letter-spacing:-0.004964192708333333em">r</tspan><tspan x="27.3237" y="0" style="letter-spacing:-0.003987630208333333em">a</tspan><tspan x="33.0596" y="0" style="letter-spacing:0.000040690104166666664em">tio</tspan></text><text transform="translate(154.237 57.8667)" style="font-size:12px;fill:#231f20;font-family:MyriadPro-It, Myriad Pro"><tspan style="font-style:italic">In </tspan><tspan x="11.3877" y="0" style="font-style:italic;letter-spacing:-0.007975260416666666em">V</tspan><tspan x="17.7598" y="0" style="font-style:italic;letter-spacing:-0.000040690104166666664em">i</tspan><tspan x="20.5073" y="0" style="font-style:italic;letter-spacing:-0.007975260416666666em">v</tspan><tspan x="25.8716" y="0" style="font-style:italic">o</tspan><tspan x="32.1353" y="0" xml:space="preserve" style="font-family:MyriadPro-Regular, Myriad Pro"> E</tspan><tspan x="40.583" y="0" style="font-family:MyriadPro-Regular, Myriad Pro;letter-spacing:-0.013020833333333334em">ff</tspan><tspan x="47.4229" y="0" style="font-family:MyriadPro-Regular, Myriad Pro;letter-spacing:0.000040690104166666664em">e</tspan><tspan x="53.4351" y="0" style="font-family:MyriadPro-Regular, Myriad Pro;letter-spacing:0.012980143229166666em">c</tspan><tspan x="58.9668" y="0" style="font-family:MyriadPro-Regular, Myriad Pro;letter-spacing:-0.000040690104166666664em">t</tspan></text><text transform="translate(103.0986 86.3773)" style="font-size:12px;fill:#231f20;font-family:MyriadPro-Regular, Myriad Pro">NK <tspan x="16.9438" y="0" style="letter-spacing:-0.010009765625em">r</tspan><tspan x="20.7476" y="0" style="letter-spacing:0.000040690104166666664em">esponse</tspan><tspan x="-10.7578" y="20">DC-like </tspan><tspan x="27.7012" y="20" style="letter-spacing:-0.009969075520833334em">r</tspan><tspan x="31.5054" y="20">esponse</tspan></text><text transform="translate(39.0723 10.0439)" style="font-size:12px;fill:#231f20;font-family:MyriadPro-It, Myriad Pro;font-style:italic"><tspan style="letter-spacing:-0.003987630208333333em">A</tspan><tspan x="6.7681" y="0">ffinities</tspan></text><text transform="translate(14.4056 86.7106)" style="font-size:12px;fill:#231f20;font-family:MyriadPro-It, Myriad Pro;font-style:italic"><tspan style="letter-spacing:-0.003987630208333333em">A</tspan><tspan x="6.7681" y="0">ffinities</tspan><tspan x="-14.4058" y="20" style="letter-spacing:-0.0069580078125em">C</tspan><tspan x="-7.8296" y="20" style="letter-spacing:-0.000040690104166666664em">ell Exp</tspan><tspan x="22.5176" y="20" style="letter-spacing:-0.006022135416666667em">r</tspan><tspan x="26.2612" y="20">ession</tspan></text><line x1="84.5706" y1="5.7104" x2="110.2021" y2="5.7104" style="fill:none;stroke:#231f20;stroke-miterlimit:10"/><path d="M118,46a30.222,30.222,0,0,0-8.5474,4.7559L111.1729,46l-1.72-4.7549A30.1957,30.1957,0,0,0,118,46Z" transform="translate(-1.7627 -40.2896)" style="fill:#231f20"/><line x1="168.5414" y1="12.8479" x2="186.6657" y2="30.9721" style="fill:none;stroke:#231f20;stroke-miterlimit:10"/><path d="M192.6959,75.5292a30.222,30.222,0,0,0-9.4068-2.681l4.5793-2.1465,2.1458-4.5786A30.1951,30.1951,0,0,0,192.6959,75.5292Z" transform="translate(-1.7627 -40.2896)" style="fill:#231f20"/><line x1="67.5706" y1="90.7106" x2="85.2021" y2="90.7106" style="fill:none;stroke:#231f20;stroke-miterlimit:10"/><path d="M93,131a30.2217,30.2217,0,0,0-8.5474,4.7559L86.1729,131l-1.72-4.7549A30.1954,30.1954,0,0,0,93,131Z" transform="translate(-1.7627 -40.2896)" style="fill:#231f20"/><line x1="168.5415" y1="89.4896" x2="186.6657" y2="71.3654" style="fill:none;stroke:#231f20;stroke-miterlimit:10"/><path d="M192.6959,107.3875a30.2221,30.2221,0,0,0-2.681,9.4068l-2.1465-4.5793-4.5786-2.1458A30.1956,30.1956,0,0,0,192.6959,107.3875Z" transform="translate(-1.7627 -40.2896)" style="fill:#231f20"/></svg>